STARTFONT 2.1
FONT -Monotype-Century Schoolbook-Regular-R-Normal--50-360-100-100-P-271-iso8859-2
SIZE 36 100 100
FONTBOUNDINGBOX 62 60 -10 -11

STARTPROPERTIES 24
FOUNDRY "Monotype"
FAMILY_NAME "Century Schoolbook"
WEIGHT_NAME "Regular"
SLANT "R"
SETWIDTH_NAME "Normal"
ADD_STYLE_NAME ""
PIXEL_SIZE 50
POINT_SIZE 360
RESOLUTION_X 100
RESOLUTION_Y 100
SPACING "P"
AVERAGE_WIDTH 271
CHARSET_REGISTRY "iso8859"
CHARSET_ENCODING "2"
FACE_NAME "Century Schoolbook ISO Latin2"
_DEC_DEVICE_FONTNAMES "PS=centuryschoolbook-lat2"
COPYRIGHT "Copyright (c) 1993 Monotype Typography Ltd."
CAP_HEIGHT 45
X_HEIGHT 28
WEIGHT 10
QUAD_WIDTH 29
DEFAULT_CHAR 160
FONT_DESCENT 12
FONT_ASCENT 51
ENDPROPERTIES

CHARS 191

STARTCHAR space
ENCODING 32
SWIDTH 278 0
DWIDTH 14 0
BBX 0 0 0 0
BITMAP
ENDCHAR

STARTCHAR exclam
ENCODING 33
SWIDTH 296 0
DWIDTH 15 0
BBX 10 38 3 -1
BITMAP
0C00
1E00
3F00
3F00
3F00
3F00
3F00
3F00
3F00
1E00
1E00
1E00
1E00
1E00
1E00
0E00
0C00
0C00
0C00
0C00
0C00
0C00
0C00
0C00
0C00
0C00
0C00
0000
0000
0000
0000
0000
1E00
1F00
3F00
3F00
3F00
1E00
ENDCHAR

STARTCHAR quotedbl
ENCODING 34
SWIDTH 389 0
DWIDTH 19 0
BBX 17 14 2 20
BITMAP
381E00
7C3E00
7C3E00
7C3E00
7C3E00
7C3E00
381E00
381C00
381C00
381C00
381C00
300C00
100800
100800
ENDCHAR

STARTCHAR numbersign
ENCODING 35
SWIDTH 556 0
DWIDTH 28 0
BBX 31 36 -2 0
BITMAP
001E01C0
001C01C0
001C01C0
001C01C0
001C03C0
00380380
00380380
00380380
00380380
00380700
7FFFFFF8
7FFFFFF8
7FFFFFF8
00700700
00F00F00
00E00E00
00E00E00
00E00E00
00E00E00
01E01E00
01C01C00
01C01C00
01C01C00
7FFFFFF8
7FFFFFF8
7FFFFFF8
03803800
03803800
03803800
07007800
07007000
07007000
07007000
07007000
0E00E000
0E00E000
ENDCHAR

STARTCHAR dollar
ENCODING 36
SWIDTH 556 0
DWIDTH 28 0
BBX 25 44 2 -7
BITMAP
00180000
00180000
00180000
01FFC000
0799E000
0E183800
18181800
38183C00
30183C00
30187C00
70187C00
70187C00
78183800
38180000
3C180000
3F180000
1FF80000
1FF80000
0FFF0000
03FFC000
01FFE000
007FF000
001FF800
0019FC00
00187C00
00183E00
00181E00
3C180E00
3E180E00
7E180E00
7E180E00
7C180E00
78181C00
38181C00
18183800
0E18F000
07FFC000
007C0000
00180000
00180000
00180000
00180000
00180000
00180000
ENDCHAR

STARTCHAR percent
ENCODING 37
SWIDTH 833 0
DWIDTH 42 0
BBX 39 36 1 -1
BITMAP
03E0000000
0E38000380
1C1C000300
1C1E000600
380E000C00
380E001C00
780F001800
780F003000
780F006000
780F006000
780F00C000
780F018000
380E038000
380E030000
3C1E060000
1C1C0C0000
0E380C0000
03E0180000
0000301FC0
00006038E0
0000607070
0000C0F038
000180E038
000380E03C
000301E03C
000601E03C
000C01E03C
000C01E03C
001801E03C
003001E03C
007000E038
006000E038
00C0007078
0180007070
01800038E0
0000000F80
ENDCHAR

STARTCHAR ampersand
ENCODING 38
SWIDTH 815 0
DWIDTH 41 0
BBX 38 38 2 -1
BITMAP
0003F00000
000FFC0000
003C3E0000
00380F0000
00780F0000
00F0070000
00F0070000
00F0070000
00F0070000
00F80F0000
00F80E0000
00F81E0000
007C3C0000
007C780000
007DE00000
003FC00000
003F000000
007F01FFF0
01FF81FFF0
03CF801F80
070FC00F00
0E07C00E00
1E03E00C00
3C03F00C00
3C01F01800
3C01F81800
7C00FC3000
7C007E3000
7C007F6000
7E003FC018
3E001FC018
3F000FC010
3F8007E030
1FC00FF870
0FF03DFFE0
07FFF0FFE0
03FFC07FC0
007F001F00
ENDCHAR

STARTCHAR quoteright
ENCODING 39
SWIDTH 204 0
DWIDTH 10 0
BBX 10 14 0 23
BITMAP
0E00
1F00
3F00
3F80
1F80
0F80
0180
0100
0300
0200
0600
0C00
3800
2000
ENDCHAR

STARTCHAR parenleft
ENCODING 40
SWIDTH 333 0
DWIDTH 17 0
BBX 16 46 2 -9
BITMAP
0004
000C
0018
0038
0070
00E0
00C0
01C0
0380
0780
0700
0F00
0E00
1E00
1E00
3E00
3C00
3C00
3C00
7C00
7C00
7C00
7C00
7C00
7C00
7C00
7C00
3C00
3C00
3C00
3E00
1E00
1E00
1E00
0F00
0F00
0700
0380
0380
01C0
00C0
0060
0030
0038
001C
000C
ENDCHAR

STARTCHAR parenright
ENCODING 41
SWIDTH 333 0
DWIDTH 17 0
BBX 16 47 -1 -10
BITMAP
2000
3000
1800
0C00
0E00
0700
0380
0380
01C0
01E0
00E0
00F0
0078
0078
0078
007C
003C
003C
003C
003E
003E
003E
003E
003E
003E
003E
003E
003E
003C
003C
003C
007C
0078
0078
0070
00F0
00E0
01E0
01C0
0380
0300
0700
0E00
1C00
1800
3000
2000
ENDCHAR

STARTCHAR asterisk
ENCODING 42
SWIDTH 500 0
DWIDTH 25 0
BBX 23 20 1 17
BITMAP
001000
003800
007C00
007C00
007C00
003800
383838
3E18F8
7F11FC
3FD3F8
1FFFF0
003800
006C00
00EE00
01C700
07C7C0
07C7C0
0783C0
0783C0
030180
ENDCHAR

STARTCHAR plus
ENCODING 43
SWIDTH 606 0
DWIDTH 30 0
BBX 30 27 1 3
BITMAP
00070000
00070000
00070000
00070000
00070000
00070000
00070000
00070000
00070000
00070000
00070000
00070000
7FFFFFF0
7FFFFFF0
7FFFFFF0
00070000
00070000
00070000
00070000
00070000
00070000
00070000
00070000
00070000
00070000
00070000
00070000
ENDCHAR

STARTCHAR comma
ENCODING 44
SWIDTH 278 0
DWIDTH 14 0
BBX 9 13 2 -8
BITMAP
1C00
3E00
7F00
7F00
3F00
1F00
0300
0200
0600
0C00
0C00
1800
7000
ENDCHAR

STARTCHAR minus
ENCODING 45
SWIDTH 606 0
DWIDTH 30 0
BBX 30 3 0 15
BITMAP
3FFFFFF8
3FFFFFF8
3FFFFFF8
ENDCHAR

STARTCHAR period
ENCODING 46
SWIDTH 278 0
DWIDTH 14 0
BBX 8 6 3 -1
BITMAP
3C
3E
7E
7E
3E
3C
ENDCHAR

STARTCHAR slash
ENCODING 47
SWIDTH 278 0
DWIDTH 14 0
BBX 16 36 -1 0
BITMAP
000E
001C
001C
001C
003C
0038
0038
0038
0070
0070
0070
00E0
00E0
00E0
01E0
01C0
01C0
01C0
0380
0380
0380
0700
0700
0700
0F00
0E00
0E00
0E00
1C00
1C00
1C00
3800
3800
3800
7800
7000
ENDCHAR

STARTCHAR zero
ENCODING 48
SWIDTH 556 0
DWIDTH 28 0
BBX 26 36 1 -1
BITMAP
003F0000
00FFC000
01C0F000
03807800
07003800
0F003C00
0E001E00
1E001E00
1E001F00
3C000F00
3C000F00
3C000F00
3C000F00
7C000F80
7C000F80
7C000F80
7C000F80
7C000F80
7C000F80
7C000F80
7C000F80
7C000F80
7C000F80
3C000F00
3C000F00
3C000F00
3E000F00
1E001E00
1E001E00
0E001E00
0F003C00
07003800
03807000
01C0E000
00FFC000
003F0000
ENDCHAR

STARTCHAR one
ENCODING 49
SWIDTH 556 0
DWIDTH 28 0
BBX 22 34 4 0
BITMAP
001800
007800
01F800
3FF800
3FF800
00F800
007800
007800
007800
007800
007800
007800
007800
007800
007800
007800
007800
007800
007800
007800
007800
007800
007800
007800
007800
007800
007800
007800
007800
007800
007800
00FC00
3FFFF0
3FFFF0
ENDCHAR

STARTCHAR two
ENCODING 50
SWIDTH 556 0
DWIDTH 28 0
BBX 26 35 1 0
BITMAP
003F8000
01FFE000
0380F800
06007C00
0C003E00
18003E00
18001F00
38001F00
3C001F00
3F001F00
3F801F00
1F801F00
1F803E00
0F003E00
00007C00
00007C00
0000F800
0000F000
0001E000
0003C000
00078000
000F0000
001E0000
00380000
00700000
00E00300
01C00300
01800300
03000300
06000700
0C000F00
1FFFFF00
3FFFFF00
7FFFFF00
7FFFFF00
ENDCHAR

STARTCHAR three
ENCODING 51
SWIDTH 556 0
DWIDTH 28 0
BBX 25 36 3 -1
BITMAP
00FE0000
03FF8000
0F03E000
1C00F000
1800F800
38007800
3C007C00
3E007C00
3E007C00
3E007C00
1E007C00
00007800
00007800
0000F000
0000E000
0003C000
01FF0000
01FF8000
0001E000
0000F800
00007800
00007C00
00003E00
00003E00
3C003E00
3E003E00
7E003E00
7E003E00
7C003E00
78003C00
30007C00
30007800
1800F000
0E03E000
07FFC000
00FE0000
ENDCHAR

STARTCHAR four
ENCODING 52
SWIDTH 556 0
DWIDTH 28 0
BBX 26 34 2 0
BITMAP
00006000
0000E000
0000E000
0001E000
0003E000
0003E000
0007E000
000DE000
001DE000
0019E000
0031E000
0061E000
00E1E000
00C1E000
0181E000
0381E000
0301E000
0601E000
0C01E000
1C01E000
1801E000
3001E000
7001E000
7FFFFF80
7FFFFF80
0001E000
0001E000
0001E000
0001E000
0001E000
0001E000
0003F000
003FFF00
003FFF00
ENDCHAR

STARTCHAR five
ENCODING 53
SWIDTH 556 0
DWIDTH 28 0
BBX 25 36 2 -1
BITMAP
08000000
0FC03800
0FFFF000
0FFFF000
0FFFC000
0DFF8000
0C000000
0C000000
08000000
08000000
08000000
08000000
08000000
08FF0000
0BFFC000
1F07E000
1C01F000
3800F800
38007C00
30007C00
00003E00
00003E00
00003E00
00003E00
3C003E00
3E003E00
7E003E00
7E003E00
7C003C00
70007C00
30007800
3000F000
1801F000
0E03C000
07FF8000
00FC0000
ENDCHAR

STARTCHAR six
ENCODING 54
SWIDTH 556 0
DWIDTH 28 0
BBX 25 35 2 -1
BITMAP
000FC000
003FF000
00F07800
01E03C00
03C03E00
07807E00
0F007E00
0F007E00
1E003C00
1E000000
3E000000
3E000000
3C000000
3C000000
7C1FC000
7C7FF000
7CE1F800
7D807C00
7F003E00
7F003E00
7E001F00
7E001F00
7E001F00
7C001F00
3C001F00
3C001F00
3E001E00
1E001E00
1E001E00
0E003C00
0F003C00
07807800
03C0F000
00FFC000
003F0000
ENDCHAR

STARTCHAR seven
ENCODING 55
SWIDTH 556 0
DWIDTH 28 0
BBX 25 35 2 -1
BITMAP
1FFFFF00
1FFFFF00
1FFFFE00
1FFFFE00
1C000C00
18000C00
18001800
30001800
30003000
30003000
30006000
00006000
0000C000
0000C000
0001C000
00018000
00038000
00038000
00078000
00070000
00070000
000F0000
000F0000
001F0000
001F0000
001F0000
001E0000
003E0000
003E0000
003E0000
003E0000
003E0000
003E0000
003E0000
001C0000
ENDCHAR

STARTCHAR eight
ENCODING 56
SWIDTH 556 0
DWIDTH 28 0
BBX 27 35 2 -1
BITMAP
003F8000
00FFE000
03807800
07003C00
0E001C00
0C001E00
1C000E00
1C000E00
1C000E00
1E000E00
1E000E00
1F001C00
1FC03800
0FF07000
07FEE000
03FFC000
01FFF000
007FFC00
01EFFE00
0781FF00
0E007F00
1C001F80
3C000F80
38000780
78000380
78000380
78000380
78000380
38000300
3C000700
1C000E00
0E001C00
07807800
03FFE000
007F0000
ENDCHAR

STARTCHAR nine
ENCODING 57
SWIDTH 556 0
DWIDTH 28 0
BBX 25 35 2 -1
BITMAP
007E0000
01FFC000
07C1E000
0F00F000
1F007800
1E003800
3E003C00
3C001E00
7C001E00
7C001E00
7C001E00
7C001F00
7C001F00
7C001F00
7C003F00
3E003F00
3E003F00
1F007F00
1F81DF00
0FFF9F00
03FE1F00
00F81F00
00001E00
00001E00
00001E00
00003E00
0E003C00
1F003C00
3F007800
3F007000
3E00F000
1E01E000
1F078000
07FF0000
01F80000
ENDCHAR

STARTCHAR colon
ENCODING 58
SWIDTH 278 0
DWIDTH 14 0
BBX 8 25 3 -1
BITMAP
3C
3E
7E
7E
7E
3C
00
00
00
00
00
00
00
00
00
00
00
00
00
3C
7E
7E
7E
3E
3C
ENDCHAR

STARTCHAR semicolon
ENCODING 59
SWIDTH 278 0
DWIDTH 14 0
BBX 9 32 3 -8
BITMAP
1800
3E00
7E00
7E00
7E00
3C00
0000
0000
0000
0000
0000
0000
0000
0000
0000
0000
0000
0000
0000
3C00
3E00
7F00
7F00
3F00
1F00
0300
0200
0600
0C00
0C00
1800
7000
ENDCHAR

STARTCHAR less
ENCODING 60
SWIDTH 606 0
DWIDTH 30 0
BBX 30 26 0 4
BITMAP
00000008
00000038
000001F8
000007F8
00001FE0
0000FF00
0003FC00
000FF000
007F8000
01FE0000
0FF00000
3FC00000
3E000000
3E000000
3FC00000
0FF00000
03FC0000
007F8000
001FE000
0003FC00
0000FF00
00003FE0
000007F8
000001F8
00000078
00000008
ENDCHAR

STARTCHAR equal
ENCODING 61
SWIDTH 606 0
DWIDTH 30 0
BBX 30 15 0 10
BITMAP
3FFFFFF8
3FFFFFF8
3FFFFFF8
00000000
00000000
00000000
00000000
00000000
00000000
00000000
00000000
00000000
3FFFFFF8
3FFFFFF8
3FFFFFF8
ENDCHAR

STARTCHAR greater
ENCODING 62
SWIDTH 606 0
DWIDTH 30 0
BBX 30 25 0 4
BITMAP
38000000
3E000000
3F800000
1FF00000
03FC0000
00FF0000
001FE000
0007F800
0001FF00
00003FC0
00000FF0
000001F8
000001F8
000007F8
00003FC0
0000FF00
0003FC00
001FE000
007F8000
03FC0000
0FF00000
3FC00000
3E000000
38000000
20000000
ENDCHAR

STARTCHAR question
ENCODING 63
SWIDTH 444 0
DWIDTH 22 0
BBX 21 38 1 -1
BITMAP
01F800
07FF00
0E0F80
1807C0
3803E0
3801E0
7C01F0
7E01F0
7E01F0
3E01F0
3C01F0
0001E0
0003E0
0003E0
0007C0
000780
000F00
001E00
001C00
003800
007000
006000
006000
004000
004000
004000
004000
000000
000000
000000
000000
000000
01E000
01F000
03F000
03F000
01F000
01E000
ENDCHAR

STARTCHAR at
ENCODING 64
SWIDTH 737 0
DWIDTH 37 0
BBX 39 38 -1 -4
BITMAP
0001FFC000
0007C0F800
001C001C00
0038000700
00E0000380
01C0000180
01800000C0
0300000060
0600000060
06001E3020
0C00717030
0C00C17030
1801C0F030
180380E030
180700E030
380701E030
300E01C030
301E01C020
301C03C020
301C038060
303C078040
30380780C0
30380B8080
30381F0180
383C370300
183E670608
181FC79C18
1C1F03F018
0C00000030
0E00000020
0600000060
03000000C0
0380000180
01C0000300
0070000E00
0038003800
000F01E000
0003FF8000
ENDCHAR

STARTCHAR A
ENCODING 65
SWIDTH 722 0
DWIDTH 36 0
BBX 40 37 -2 0
BITMAP
0000180000
00001C0000
00001C0000
00003E0000
00003E0000
00007E0000
00007F0000
00007F0000
0000DF8000
0000CF8000
00018F8000
000187C000
000187C000
000307C000
000303E000
000603E000
000603F000
000601F000
000C01F000
000C00F800
001800F800
001800FC00
0018007C00
003FFFFC00
003FFFFE00
0060003E00
0060003F00
00E0001F00
00C0001F00
00C0000F80
01C0000F80
0180000FC0
03800007C0
03C00007C0
0FE0000FE0
3FFE00FFFC
3FFE00FFFC
ENDCHAR

STARTCHAR B
ENCODING 66
SWIDTH 722 0
DWIDTH 36 0
BBX 35 36 1 0
BITMAP
7FFFFF8000
7FFFFFE000
03F803F800
01F000FC00
01F0007E00
01F0003E00
01F0003F00
01F0003F00
01F0003F00
01F0003F00
01F0003F00
01F0003E00
01F0007E00
01F0007C00
01F000F000
01F003E000
01FFFF0000
01FFFFE000
01F001F800
01F0007E00
01F0003F00
01F0001F80
01F0001F80
01F0000FC0
01F0000FC0
01F0000FC0
01F0000FC0
01F0000FC0
01F0000FC0
01F0000F80
01F0001F80
01F0003F00
01F0007E00
03F801FC00
7FFFFFF000
7FFFFF0000
ENDCHAR

STARTCHAR C
ENCODING 67
SWIDTH 722 0
DWIDTH 36 0
BBX 34 38 2 -1
BITMAP
0001FC0600
000FFF0E00
003E07CE00
007801EE00
00F0007E00
01E0003E00
03E0003E00
07C0001E00
07C0001E00
0F80000E00
0F80000E00
1F80000600
1F80000600
1F80000600
1F00000200
3F00000000
3F00000000
3F00000000
3F00000000
3F00000000
3F00000000
3F00000000
3F00000000
3F00000000
3F00000000
1F80000300
1F80000300
1F80000300
0F80000200
0FC0000600
07C0000600
03E0000C00
03F0001800
01F8003800
007C007000
003F03E000
000FFF8000
0001FE0000
ENDCHAR

STARTCHAR D
ENCODING 68
SWIDTH 778 0
DWIDTH 39 0
BBX 37 36 0 0
BITMAP
7FFFFF8000
7FFFFFE000
01F801F800
01F0007C00
01F0003E00
01F0001F00
01F0000F80
01F0000F80
01F00007C0
01F00007C0
01F00007E0
01F00007E0
01F00003E0
01F00003F0
01F00003F0
01F00003F0
01F00003F0
01F00003F0
01F00003F0
01F00003F0
01F00003F0
01F00003F0
01F00003F0
01F00003E0
01F00003E0
01F00007E0
01F00007C0
01F00007C0
01F0000F80
01F0000F80
01F0001F00
01F0003E00
01F0007C00
01F801F800
7FFFFFE000
7FFFFE0000
ENDCHAR

STARTCHAR E
ENCODING 69
SWIDTH 722 0
DWIDTH 36 0
BBX 34 36 1 0
BITMAP
3FFFFFFE00
3FFFFFFE00
01F000FE00
01F0003E00
01F0001E00
01F0001E00
01F0000E00
01F0000E00
01F0000600
01F0060600
01F0060600
01F0060600
01F00E0000
01F00E0000
01F01E0000
01F03E0000
01FFFE0000
01FFFE0000
01F03E0000
01F01E0000
01F00E0000
01F00E0000
01F0060300
01F0060300
01F0060300
01F0060300
01F0000300
01F0000700
01F0000700
01F0000F00
01F0000F00
01F0001F00
01F0003F00
03F800FF00
3FFFFFFF00
3FFFFFFF00
ENDCHAR

STARTCHAR F
ENCODING 70
SWIDTH 667 0
DWIDTH 33 0
BBX 32 36 2 0
BITMAP
7FFFFFFE
7FFFFFFE
01F000FE
01F0003E
01F0003E
01F0001E
01F0000E
01F0000E
01F0000E
01F00606
01F00606
01F00606
01F00E00
01F00E00
01F01E00
01F03E00
01FFFE00
01FFFE00
01F03E00
01F01E00
01F00E00
01F00E00
01F00600
01F00600
01F00600
01F00000
01F00000
01F00000
01F00000
01F00000
01F00000
01F00000
01F00000
01F80000
7FFFC000
7FFFC000
ENDCHAR

STARTCHAR G
ENCODING 71
SWIDTH 778 0
DWIDTH 39 0
BBX 38 38 1 -1
BITMAP
0001FC0600
000FFF0E00
003E03CE00
007800FE00
00F0007E00
01E0003E00
03C0001E00
07C0001E00
0780000E00
0F80000E00
0F80000600
1F80000600
1F00000300
1F00000300
3F00000000
3F00000000
3F00000000
3F00000000
3F00000000
3F00000000
3F0003FFF8
3F0003FFF8
3F00001F00
3F00001F00
1F00001F00
1F80001F00
1F80001F00
0F80001F00
0F80001F00
07C0001F00
07C0001F00
03E0003F00
01E0003700
00F0006700
007800C700
003E038300
000FFF0300
0001FC0300
ENDCHAR

STARTCHAR H
ENCODING 72
SWIDTH 833 0
DWIDTH 42 0
BBX 41 36 0 0
BITMAP
3FFF80FFFE00
3FFF80FFFE00
03F80007E000
01F00007C000
01F00007C000
01F00007C000
01F00007C000
01F00007C000
01F00007C000
01F00007C000
01F00007C000
01F00007C000
01F00007C000
01F00007C000
01F00007C000
01F00007C000
01FFFFFFC000
01FFFFFFC000
01F00007C000
01F00007C000
01F00007C000
01F00007C000
01F00007C000
01F00007C000
01F00007C000
01F00007C000
01F00007C000
01F00007C000
01F00007C000
01F00007C000
01F00007C000
01F00007C000
01F00007C000
03F8000FE000
3FFF80FFFE00
3FFF80FFFE00
ENDCHAR

STARTCHAR I
ENCODING 73
SWIDTH 407 0
DWIDTH 20 0
BBX 19 36 1 0
BITMAP
7FFFC0
7FFFC0
03F000
01F000
01F000
01F000
01F000
01F000
01F000
01F000
01F000
01F000
01F000
01F000
01F000
01F000
01F000
01F000
01F000
01F000
01F000
01F000
01F000
01F000
01F000
01F000
01F000
01F000
01F000
01F000
01F000
01F000
01F000
01F800
7FFFC0
7FFFC0
ENDCHAR

STARTCHAR J
ENCODING 74
SWIDTH 556 0
DWIDTH 28 0
BBX 28 37 0 -1
BITMAP
001FFFE0
001FFFE0
0000FE00
00007C00
00007C00
00007C00
00007C00
00007C00
00007C00
00007C00
00007C00
00007C00
00007C00
00007C00
00007C00
00007C00
00007C00
00007C00
00007C00
00007C00
00007C00
00007C00
0F007C00
1F807C00
3FC07C00
3FC07C00
7FC07C00
7F807C00
7F807C00
70007C00
3000FC00
3000F800
3801F800
1C03F000
0F07E000
03FF8000
00FE0000
ENDCHAR

STARTCHAR K
ENCODING 75
SWIDTH 778 0
DWIDTH 39 0
BBX 41 36 1 0
BITMAP
7FFFC3FFF800
7FFFC3FFF800
03F8003F8000
01F0001E0000
01F0001C0000
01F000380000
01F000700000
01F000E00000
01F001C00000
01F001800000
01F003000000
01F006000000
01F00C000000
01F018000000
01F03C000000
01F07C000000
01F0FE000000
01F1FF000000
01F3BF000000
01F71F800000
01FE0FC00000
01FC0FC00000
01F807E00000
01F003F00000
01F001F00000
01F001F80000
01F000FC0000
01F0007C0000
01F0007E0000
01F0003F0000
01F0001F8000
01F0001F8000
01F0000FC000
03F8000FE000
7FFFC1FFFE00
7FFFC1FFFE00
ENDCHAR

STARTCHAR L
ENCODING 76
SWIDTH 667 0
DWIDTH 33 0
BBX 34 36 0 0
BITMAP
7FFFC00000
7FFFC00000
01F0000000
01F0000000
01F0000000
01F0000000
01F0000000
01F0000000
01F0000000
01F0000000
01F0000000
01F0000000
01F0000000
01F0000000
01F0000000
01F0000000
01F0000000
01F0000000
01F0000000
01F0000000
01F0000000
01F0000000
01F0000300
01F0000300
01F0000300
01F0000300
01F0000700
01F0000700
01F0000700
01F0000F00
01F0001F00
01F0001F00
01F0003F00
03F801FE00
7FFFFFFE00
7FFFFFFE00
ENDCHAR

STARTCHAR M
ENCODING 77
SWIDTH 944 0
DWIDTH 47 0
BBX 48 36 -1 0
BITMAP
7FFC00003FFE
7FFC00003FFE
01FC00003FC0
01BE00006F80
01BE00006F80
01BF00006F80
019F0000CF80
019F0000CF80
018F8001CF80
018F80018F80
018F80018F80
0187C0030F80
0187C0030F80
0187E0030F80
0183E0060F80
0183E0060F80
0181F0060F80
0181F00C0F80
0181F80C0F80
0180F80C0F80
0180F8180F80
01807C180F80
01807C380F80
01807C300F80
01803E300F80
01803E600F80
01803F600F80
01801F600F80
01801FC00F80
01800FC00F80
01800FC00F80
01C00F800F80
03C007800F80
0FF007801FC0
7FFE0303FFFE
7FFE0303FFFE
ENDCHAR

STARTCHAR N
ENCODING 78
SWIDTH 815 0
DWIDTH 41 0
BBX 41 36 1 0
BITMAP
7FC0001FFE00
7FE0001FFE00
07F00007F000
03F80001E000
01FC0001E000
01FC0000C000
01FE0000C000
01BF0000C000
01BF8000C000
019F8000C000
018FC000C000
0187E000C000
0183F000C000
0183F800C000
0181F800C000
0180FC00C000
01807E00C000
01807F00C000
01803F00C000
01801F80C000
01800FC0C000
018007E0C000
018007F0C000
018003F0C000
018001F8C000
018000FCC000
018000FEC000
0180007EC000
0180003FC000
0180001FC000
0180001FC000
03C0000FC000
07C00007C000
0FF00003C000
7FFE0001C000
7FFE0001C000
ENDCHAR

STARTCHAR O
ENCODING 79
SWIDTH 778 0
DWIDTH 39 0
BBX 37 38 1 -1
BITMAP
0001FC0000
000FFF8000
003E03E000
007800F000
00F0007800
01E0003C00
03E0003E00
07C0001F00
07C0001F80
0F80000F80
0F80000F80
1F80000FC0
1F000007C0
1F000007C0
3F000007E0
3F000007E0
3F000007E0
3F000007E0
3F000007E0
3F000007E0
3F000007E0
3F000007E0
3F000007E0
3F000007E0
1F000007C0
1F800007C0
1F80000FC0
0F80000F80
0F80000F80
07C0001F00
07C0001F00
03E0003E00
01E0003C00
00F0007800
007800F000
003E03E000
000FFF8000
0001FC0000
ENDCHAR

STARTCHAR P
ENCODING 80
SWIDTH 667 0
DWIDTH 33 0
BBX 33 36 1 0
BITMAP
7FFFFF0000
7FFFFFE000
03F803F000
01F000F800
01F0007C00
01F0007E00
01F0003E00
01F0003F00
01F0003F00
01F0003F00
01F0003F00
01F0003F00
01F0003E00
01F0003E00
01F0007E00
01F0007C00
01F000F800
01F003F000
01FFFFC000
01FFFE0000
01F0000000
01F0000000
01F0000000
01F0000000
01F0000000
01F0000000
01F0000000
01F0000000
01F0000000
01F0000000
01F0000000
01F0000000
01F0000000
01F8000000
7FFFE00000
7FFFE00000
ENDCHAR

STARTCHAR Q
ENCODING 81
SWIDTH 778 0
DWIDTH 39 0
BBX 37 46 1 -9
BITMAP
0001FC0000
000FFF8000
003E03E000
007800F000
00F0007C00
01E0003C00
03C0001E00
07C0001F00
0F80000F80
0F80000F80
1F80000FC0
1F80000FC0
1F000007C0
1F000007E0
3F000007E0
3F000007E0
3F000007E0
3F000007E0
3F000007E0
3F000007E0
3F000007E0
3F000007E0
3F000007E0
1F00F807E0
1F83FE07C0
1F870F0FC0
1F8C030FC0
0F8C038F80
0FD801CF80
07D801DF00
07D801DE00
03F801FE00
01F801FC00
00FC01F800
007C01F000
003F07F000
000FFFF000
0001F8F800
000000F830
000000F830
000000FC20
000000FC60
0000007FE0
0000007FC0
0000003FC0
0000001F00
ENDCHAR

STARTCHAR R
ENCODING 82
SWIDTH 722 0
DWIDTH 36 0
BBX 36 37 0 -1
BITMAP
7FFFFF0000
7FFFFFC000
01F803F000
01F001F800
01F000FC00
01F0007C00
01F0007C00
01F0007E00
01F0007E00
01F0007E00
01F0007E00
01F0007E00
01F0007C00
01F0007C00
01F000F800
01F001F000
01F007E000
01FFFF0000
01FFF00000
01F01E0000
01F00F8000
01F007C000
01F003C000
01F003E000
01F003E000
01F003E000
01F001E000
01F001F000
01F001F000
01F001F060
01F001F860
01F001F840
01F001F8C0
01F000FCC0
7FFFC0FF80
7FFFC07F80
0000003E00
ENDCHAR

STARTCHAR S
ENCODING 83
SWIDTH 630 0
DWIDTH 31 0
BBX 29 38 2 -1
BITMAP
007F0180
01FFC180
0380F380
07003F80
0E001F80
1C000F80
1C000780
38000780
38000380
38000380
38000180
3C000180
3E000180
3F000080
3FC00000
1FFC0000
1FFFC000
0FFFF800
03FFFE00
01FFFF00
003FFF80
0003FFC0
00003FE0
000007E0
600003E0
700001E0
700001E0
700000E0
780000E0
780000E0
7C0000E0
7E0001C0
7F0001C0
7F800380
7FC00700
78F01E00
707FF800
600FE000
ENDCHAR

STARTCHAR T
ENCODING 84
SWIDTH 667 0
DWIDTH 33 0
BBX 33 36 0 0
BITMAP
3FFFFFFE00
3FFFFFFE00
3F03E07E00
3E03E03E00
3C03E01E00
3803E00F00
3803E00F00
7003E00700
7003E00700
7003E00700
7003E00300
6003E00300
6003E00300
6003E00300
0003E00000
0003E00000
0003E00000
0003E00000
0003E00000
0003E00000
0003E00000
0003E00000
0003E00000
0003E00000
0003E00000
0003E00000
0003E00000
0003E00000
0003E00000
0003E00000
0003E00000
0003E00000
0003E00000
0003F00000
00FFFF8000
00FFFF8000
ENDCHAR

STARTCHAR U
ENCODING 85
SWIDTH 815 0
DWIDTH 41 0
BBX 41 37 0 -1
BITMAP
7FFFC03FFE00
7FFFC03FFE00
03F80007F000
01F00003E000
01F00001C000
01F00001C000
01F00001C000
01F00001C000
01F00001C000
01F00001C000
01F00001C000
01F00001C000
01F00001C000
01F00001C000
01F00001C000
01F00001C000
01F00001C000
01F00001C000
01F00001C000
01F00001C000
01F00001C000
01F00001C000
01F00001C000
01F00001C000
01F00001C000
01F00001C000
01F00001C000
01F000018000
01F800018000
00F800038000
00F800038000
00FC00070000
007E000E0000
003F803C0000
001FFFF80000
0007FFE00000
0000FF000000
ENDCHAR

STARTCHAR V
ENCODING 86
SWIDTH 722 0
DWIDTH 36 0
BBX 40 37 -2 -1
BITMAP
3FFF807FFC
3FFF807FFC
07F00007E0
03F00003C0
01F00003C0
01F0000380
00F8000380
00F8000300
00F8000700
007C000700
007C000600
003E000E00
003E000C00
003E000C00
001F001C00
001F001800
000F803800
000F803800
000F803000
0007C07000
0007C07000
0003E06000
0003E0E000
0003E0C000
0001F0C000
0001F1C000
0001F98000
0000FB8000
0000FB8000
00007F0000
00007F0000
00007E0000
00003E0000
00003E0000
00001C0000
00001C0000
00001C0000
ENDCHAR

STARTCHAR W
ENCODING 87
SWIDTH 981 0
DWIDTH 49 0
BBX 51 37 -1 -1
BITMAP
3FFC3FFF83FFC0
3FFC3FFF83FFC0
0FC001F8003F00
07C001F0003C00
03C000F8003C00
03E000F8001800
03E000F8003800
03E000FC003000
01F000FC003000
01F000FC003000
01F001FE007000
00F801BE006000
00F801BE006000
00F8039E00E000
007C031F00C000
007C031F00C000
007C070F01C000
003E070F818000
003E060F818000
003E060F818000
001F0E07C38000
001F0C07C30000
001F0C07C30000
000F9C03E70000
000F9803E60000
000F9803E60000
0007F801FE0000
0007F801FC0000
0007F001FC0000
0003F000FC0000
0003F000FC0000
0003E000F80000
0003E000780000
0001E000780000
0001C000700000
0001C000700000
0000C000300000
ENDCHAR

STARTCHAR X
ENCODING 88
SWIDTH 704 0
DWIDTH 35 0
BBX 37 36 -1 0
BITMAP
3FFF83FFE0
3FFF83FFE0
07F0007F00
03F0003C00
01F8003800
00F8007000
00FC007000
007E00E000
003E01C000
003F01C000
001F838000
000F830000
000FC70000
0007EE0000
0003FC0000
0001F80000
0001F80000
0000FC0000
00007C0000
0000FE0000
0001FF0000
00019F0000
00039F8000
00070FC000
000607C000
000E07E000
001C03F000
001801F800
003800F800
007000FC00
00E0007E00
00E0003E00
03E0003F00
07F0003F80
3FFF03FFF0
3FFF03FFF0
ENDCHAR

STARTCHAR Y
ENCODING 89
SWIDTH 704 0
DWIDTH 35 0
BBX 39 36 -2 0
BITMAP
3FFFC0FFFC
3FFFC0FFFC
07F8000FC0
03F0000780
01F8000700
00F8000700
00FC000E00
007E000C00
003E001C00
003F001800
001F803800
000F803000
000FC07000
0007E06000
0003E0E000
0003F1C000
0001F9C000
0000FB8000
0000FF0000
00007F0000
00007E0000
00003E0000
00003E0000
00003E0000
00003E0000
00003E0000
00003E0000
00003E0000
00003E0000
00003E0000
00003E0000
00003E0000
00003E0000
00007F0000
000FFFF800
000FFFF800
ENDCHAR

STARTCHAR Z
ENCODING 90
SWIDTH 611 0
DWIDTH 31 0
BBX 30 36 0 0
BITMAP
0FFFFFF0
0FFFFFF0
0FE003F0
1F8003E0
1F0007E0
1E000FC0
1C000F80
1C001F80
1C003F00
18003E00
18007E00
18007C00
0000F800
0001F800
0001F000
0003F000
0007E000
0007C000
000FC000
001F8000
001F0000
003F0000
007E0018
007C0018
00FC0038
01F80030
01F00030
03F00070
03E00070
07E00070
0FC000F0
0F8001F0
1F8003F0
3F000FF0
3FFFFFF0
3FFFFFF0
ENDCHAR

STARTCHAR bracketleft
ENCODING 91
SWIDTH 333 0
DWIDTH 17 0
BBX 13 45 5 -9
BITMAP
7FE0
7FE0
7800
7800
7800
7800
7800
7800
7800
7800
7800
7800
7800
7800
7800
7800
7800
7800
7800
7800
7800
7800
7800
7800
7800
7800
7800
7800
7800
7800
7800
7800
7800
7800
7800
7800
7800
7800
7800
7800
7800
7800
7C00
7FE0
7FE0
ENDCHAR

STARTCHAR backslash
ENCODING 92
SWIDTH 606 0
DWIDTH 30 0
BBX 32 36 -1 0
BITMAP
38000000
1C000000
0E000000
0F000000
07000000
03800000
03C00000
01C00000
00E00000
00700000
00700000
00380000
001C0000
001E0000
000E0000
00070000
00038000
00038000
0001C000
0000E000
0000F000
00007000
00003800
00001C00
00001C00
00000E00
00000700
00000780
00000380
000001C0
000001E0
000000E0
00000070
00000038
00000038
0000001C
ENDCHAR

STARTCHAR bracketright
ENCODING 93
SWIDTH 333 0
DWIDTH 17 0
BBX 13 45 -1 -9
BITMAP
3FF0
3FF0
00F0
00F0
00F0
00F0
00F0
00F0
00F0
00F0
00F0
00F0
00F0
00F0
00F0
00F0
00F0
00F0
00F0
00F0
00F0
00F0
00F0
00F0
00F0
00F0
00F0
00F0
00F0
00F0
00F0
00F0
00F0
00F0
00F0
00F0
00F0
00F0
00F0
00F0
00F0
00F0
00F0
3FF0
3FF0
ENDCHAR

STARTCHAR asciicircum
ENCODING 94
SWIDTH 606 0
DWIDTH 30 0
BBX 25 18 3 17
BITMAP
00080000
00180000
001C0000
003C0000
003E0000
00770000
00E70000
00E38000
01C38000
0181C000
0380E000
0700E000
07007000
0E007000
1E003800
1C003C00
38001C00
38000E00
ENDCHAR

STARTCHAR underscore
ENCODING 95
SWIDTH 500 0
DWIDTH 25 0
BBX 29 3 -2 -6
BITMAP
3FFFFFE0
3FFFFFE0
3FFFFFE0
ENDCHAR

STARTCHAR quoteleft
ENCODING 96
SWIDTH 204 0
DWIDTH 10 0
BBX 10 14 1 23
BITMAP
0100
0700
0C00
1800
1800
3000
3000
6000
7E00
7F00
7F00
3F00
3E00
0C00
ENDCHAR

STARTCHAR a
ENCODING 97
SWIDTH 556 0
DWIDTH 28 0
BBX 27 25 1 -1
BITMAP
007F0000
01FFC000
0703F000
0E00F000
1E00F800
1F007800
1F007800
1F007800
1F007800
06007800
0003F800
003FF800
01F87800
07C07800
0F007800
1E007800
3C007800
3C007800
7C00F800
7C00F800
7C01F800
3E037C00
3F0E3FC0
1FFC1FC0
07F00F00
ENDCHAR

STARTCHAR b
ENCODING 98
SWIDTH 556 0
DWIDTH 28 0
BBX 28 38 -1 -1
BITMAP
07C00000
3FC00000
07C00000
03C00000
03C00000
03C00000
03C00000
03C00000
03C00000
03C00000
03C00000
03C00000
03C00000
03C3F000
03CFFC00
03DC3F00
03D80F00
03F00780
03E007C0
03E007C0
03E003C0
03C003C0
03C003E0
03C003E0
03C003E0
03C003E0
03C003E0
03C003E0
03C003C0
03C003C0
03E003C0
03E007C0
03E00780
03F00700
03B00F00
031C1E00
020FF800
0203E000
ENDCHAR

STARTCHAR c
ENCODING 99
SWIDTH 444 0
DWIDTH 22 0
BBX 22 25 0 -1
BITMAP
003E00
01FF80
03C1E0
0780E0
0F00F0
1E01F0
1E01F0
3C01F0
3C01E0
3C0040
3C0000
7C0000
7C0000
7C0000
7C0000
7C0000
3C0000
3C0000
3E0010
1E0030
1F0060
0F80E0
07E1C0
03FF80
00FE00
ENDCHAR

STARTCHAR d
ENCODING 100
SWIDTH 574 0
DWIDTH 29 0
BBX 28 38 2 -1
BITMAP
00007C00
0007FC00
00007C00
00003C00
00003C00
00003C00
00003C00
00003C00
00003C00
00003C00
00003C00
00003C00
00003C00
00FC3C00
03FE3C00
0783BC00
0F01BC00
1E00FC00
1E007C00
3E007C00
3C007C00
3C003C00
7C003C00
7C003C00
7C003C00
7C003C00
7C003C00
7C003C00
7C003C00
3C003C00
3C007C00
3E007C00
1E007C00
1F00FC00
0F01BC00
07C73E00
03FE3FC0
00700000
ENDCHAR

STARTCHAR e
ENCODING 101
SWIDTH 500 0
DWIDTH 25 0
BBX 24 25 1 -1
BITMAP
003C00
01FF80
0383C0
0700E0
0E0070
1E0078
1E0078
3C0038
3C003C
3C007C
7C007C
7FFFFC
7FFFFC
7C0000
7C0000
7C0000
3C0000
3C0000
3E000C
1E001C
1F0018
0F8070
07E1E0
01FFC0
007F00
ENDCHAR

STARTCHAR f
ENCODING 102
SWIDTH 333 0
DWIDTH 17 0
BBX 23 37 -1 0
BITMAP
0007C0
003FF0
007870
00F078
00E0F8
01E0F8
01C0F8
01C070
03C000
03C000
03C000
03C000
03C000
03C000
3FFF00
3FFF00
03C000
03C000
03C000
03C000
03C000
03C000
03C000
03C000
03C000
03C000
03C000
03C000
03C000
03C000
03C000
03C000
03C000
03C000
03E000
3FFF00
3FFF00
ENDCHAR

STARTCHAR g
ENCODING 103
SWIDTH 537 0
DWIDTH 27 0
BBX 27 35 1 -10
BITMAP
00000780
00FF0F80
03E7DFC0
0781E380
0F00F180
0F00F800
1E007800
1E007800
1E007800
1E007800
1E007800
1E007800
1F00F000
0F00F000
0781E000
03E7C000
07FF0000
0C000000
18000000
38000000
38000000
1FFFC000
1FFFF800
0FFFFC00
03FFFE00
07803E00
1E001E00
3C000E00
38000E00
38000C00
3C000C00
3C003800
1F00F000
07FFC000
00FE0000
ENDCHAR

STARTCHAR h
ENCODING 104
SWIDTH 611 0
DWIDTH 31 0
BBX 32 37 -1 0
BITMAP
07C00000
7FC00000
07C00000
03C00000
03C00000
03C00000
03C00000
03C00000
03C00000
03C00000
03C00000
03C00000
03C00000
03C0F800
03C3FE00
03CFFF00
03DC1F80
03F80F80
03F007C0
03E003C0
03E003C0
03C003C0
03C003C0
03C003C0
03C003C0
03C003C0
03C003C0
03C003C0
03C003C0
03C003C0
03C003C0
03C003C0
03C003C0
03C003C0
07E007E0
3FFC3FFC
3FFC3FFC
ENDCHAR

STARTCHAR i
ENCODING 105
SWIDTH 315 0
DWIDTH 16 0
BBX 17 37 -1 0
BITMAP
018000
03C000
07E000
07E000
03C000
018000
000000
000000
000000
000000
000000
000000
000000
03E000
3FE000
03E000
01E000
01E000
01E000
01E000
01E000
01E000
01E000
01E000
01E000
01E000
01E000
01E000
01E000
01E000
01E000
01E000
01E000
01E000
03E000
3FFE00
3FFE00
ENDCHAR

STARTCHAR j
ENCODING 106
SWIDTH 296 0
DWIDTH 15 0
BBX 15 46 -3 -9
BITMAP
0078
007C
00FC
00FC
0078
0000
0000
0000
0000
0000
0000
0000
0000
01F8
0FF8
00F8
0078
0078
0078
0078
0078
0078
0078
0078
0078
0078
0078
0078
0078
0078
0078
0078
0078
0078
0078
0078
0078
0078
0070
0070
1870
3CE0
7CC0
7FC0
3F00
1C00
ENDCHAR

STARTCHAR k
ENCODING 107
SWIDTH 593 0
DWIDTH 30 0
BBX 30 37 0 0
BITMAP
07C00000
7FC00000
07C00000
03C00000
03C00000
03C00000
03C00000
03C00000
03C00000
03C00000
03C00000
03C00000
03C00000
03C00000
03C1FFE0
03C1FFE0
03C03E00
03C03C00
03C03800
03C06000
03C0C000
03C18000
03C70000
03CF8000
03DFC000
03FBE000
03F1E000
03C1F000
03C0F800
03C07C00
03C07C00
03C03E00
03C01F00
03C00F00
07E00F80
3FFCFFF8
3FFCFFF8
ENDCHAR

STARTCHAR l
ENCODING 108
SWIDTH 315 0
DWIDTH 16 0
BBX 16 37 0 0
BITMAP
07C0
7FC0
07C0
03C0
03C0
03C0
03C0
03C0
03C0
03C0
03C0
03C0
03C0
03C0
03C0
03C0
03C0
03C0
03C0
03C0
03C0
03C0
03C0
03C0
03C0
03C0
03C0
03C0
03C0
03C0
03C0
03C0
03C0
03C0
07C0
7FFC
7FFC
ENDCHAR

STARTCHAR m
ENCODING 109
SWIDTH 889 0
DWIDTH 44 0
BBX 43 24 1 0
BITMAP
0701E0038000
3F87F81FE000
1F9FFC3FF000
07B83E60F800
07A01EC07800
07E01F803C00
07C00F803C00
07C00F003C00
07800F003C00
07800F003C00
07800F003C00
07800F003C00
07800F003C00
07800F003C00
07800F003C00
07800F003C00
07800F003C00
07800F003C00
07800F003C00
07800F003C00
07800F003C00
07C01F803E00
7FF8FFF3FFC0
7FF8FFF3FFC0
ENDCHAR

STARTCHAR n
ENCODING 110
SWIDTH 611 0
DWIDTH 31 0
BBX 32 24 0 0
BITMAP
03807800
3FC3FE00
07CFFF00
03DC1F80
03D80780
03F007C0
03E003C0
03E003C0
03C003C0
03C003C0
03C003C0
03C003C0
03C003C0
03C003C0
03C003C0
03C003C0
03C003C0
03C003C0
03C003C0
03C003C0
03C003C0
07E007E0
3FFC3FFC
3FFC3FFC
ENDCHAR

STARTCHAR o
ENCODING 111
SWIDTH 500 0
DWIDTH 25 0
BBX 24 25 1 -1
BITMAP
007E00
01FF80
0781E0
0F00F0
0E0070
1E0078
3E007C
3C003C
3C003C
3C003E
7C003E
7C003E
7C003E
7C003E
7C003E
3C003C
3C003C
3C003C
1E007C
1E0078
0F0070
0F00F0
03C1E0
01FF80
007E00
ENDCHAR

STARTCHAR p
ENCODING 112
SWIDTH 574 0
DWIDTH 29 0
BBX 28 33 0 -9
BITMAP
0380E000
3FC7FC00
1FCFFE00
03DC1F00
03D00F80
03F00780
03E007C0
03E003C0
03E003C0
03C003E0
03C003E0
03C003E0
03C003E0
03C003E0
03C003E0
03C003E0
03C003C0
03E003C0
03E007C0
03E00780
03F00780
03D80F00
03CC3E00
03C7FC00
03C3F000
03C00000
03C00000
03C00000
03C00000
03C00000
03E00000
3FFC0000
3FFC0000
ENDCHAR

STARTCHAR q
ENCODING 113
SWIDTH 556 0
DWIDTH 28 0
BBX 27 33 1 -9
BITMAP
007C0200
01FF0600
07C3CC00
0F00FC00
0F00FC00
1E007C00
1E007C00
3C003C00
3C003C00
3C003C00
7C003C00
7C003C00
7C003C00
7C003C00
7C003C00
7C003C00
3C003C00
3E007C00
3E007C00
1E007C00
1F00FC00
0F81BC00
07C3BC00
03FE3C00
00FC3C00
00003C00
00003C00
00003C00
00003C00
00003C00
00003C00
0003FFC0
0003FFC0
ENDCHAR

STARTCHAR r
ENCODING 114
SWIDTH 444 0
DWIDTH 22 0
BBX 23 24 0 0
BITMAP
0781C0
7F87F0
078E78
038CF8
0398F8
0398F8
03B070
03B020
03A000
03E000
03E000
03C000
03C000
03C000
03C000
03C000
03C000
03C000
03C000
03C000
03C000
07E000
7FFE00
7FFE00
ENDCHAR

STARTCHAR s
ENCODING 115
SWIDTH 463 0
DWIDTH 23 0
BBX 21 25 1 -1
BITMAP
01F840
07FEC0
0E07C0
1C03C0
1801C0
1800C0
3800C0
380040
3C0060
1F0000
1FF800
0FFF80
07FFC0
03FFE0
003FE0
3001F0
3000F0
300070
380070
380070
3C0060
3E00E0
3F81C0
39FF80
307C00
ENDCHAR

STARTCHAR t
ENCODING 116
SWIDTH 389 0
DWIDTH 19 0
BBX 20 33 0 -1
BITMAP
018000
018000
018000
018000
018000
038000
038000
078000
0F8000
7FFF00
7FFF00
078000
078000
078000
078000
078000
078000
078000
078000
078000
078000
078000
078000
078000
0780C0
0780C0
0780C0
0780C0
078180
07C180
03E300
01FE00
00FC00
ENDCHAR

STARTCHAR u
ENCODING 117
SWIDTH 611 0
DWIDTH 31 0
BBX 32 25 -1 -1
BITMAP
07C007C0
3FC03FC0
07C00FC0
03C003C0
03C003C0
03C003C0
03C003C0
03C003C0
03C003C0
03C003C0
03C003C0
03C003C0
03C003C0
03C003C0
03C003C0
03C003C0
03C003C0
03C007C0
03C007C0
01E00FC0
01E01BC0
01F833C0
00FFE3F0
007FC3FC
001F0000
ENDCHAR

STARTCHAR v
ENCODING 118
SWIDTH 537 0
DWIDTH 27 0
BBX 28 24 0 -1
BITMAP
7FF07FE0
7FF07FE0
0F800F00
0F800700
07800600
07C00E00
03C00C00
03E01C00
01E01800
01F01800
01F03000
00F03000
00F87000
00786000
007CE000
003CC000
003EC000
001F8000
001F8000
000F0000
000F0000
000F0000
00060000
00060000
ENDCHAR

STARTCHAR w
ENCODING 119
SWIDTH 778 0
DWIDTH 39 0
BBX 40 24 0 -1
BITMAP
3FF3FF87FC
3FF3FF87FC
0F807C00F0
0F803C00E0
07803E00C0
07803E00C0
07C03E01C0
03C07F0180
03E06F0180
01E06F8300
01E0E78300
01F0C78300
00F0C7C600
00F983C600
007983EE00
007B81EC00
007F01EC00
003F01FC00
003F00F800
001E00F800
001E007800
001E007000
000C007000
000C002000
ENDCHAR

STARTCHAR x
ENCODING 120
SWIDTH 537 0
DWIDTH 27 0
BBX 28 23 0 0
BITMAP
7FF1FF80
7FF1FF80
0F803C00
07C03800
07E07000
03E06000
01F0C000
00F98000
007F0000
007F0000
003E0000
001F0000
001F8000
003FC000
0067C000
0063E000
00C1F000
0180F800
0300F800
07007C00
1F007E00
7FE3FFC0
7FE3FFC0
ENDCHAR

STARTCHAR y
ENCODING 121
SWIDTH 537 0
DWIDTH 27 0
BBX 28 32 0 -9
BITMAP
7FF07FE0
7FF07FE0
1F800F00
0F800700
07800600
07C00400
03C00C00
03E00C00
01E01800
01F01800
00F03000
00F83000
00782000
007C6000
003C4000
003EC000
001EC000
001F8000
000F8000
000F0000
00070000
00060000
00060000
00040000
000C0000
000C0000
38180000
3C300000
7C700000
7CE00000
3FC00000
1F000000
ENDCHAR

STARTCHAR z
ENCODING 122
SWIDTH 481 0
DWIDTH 24 0
BBX 23 23 1 0
BITMAP
1FFFF8
1FFFF8
1E01F0
3C01E0
3803E0
3807C0
300F80
300F00
001F00
003E00
007C00
007C00
00F800
01F000
03E008
03E018
07C018
0F8018
1F0038
1F0078
3E00F8
7FFFF8
7FFFF8
ENDCHAR

STARTCHAR braceleft
ENCODING 123
SWIDTH 333 0
DWIDTH 17 0
BBX 17 47 1 -10
BITMAP
000300
001C00
003000
006000
00C000
01C000
01C000
03C000
03C000
03C000
03C000
03E000
03E000
01E000
01E000
01E000
01E000
01C000
01C000
018000
030000
060000
180000
700000
0C0000
070000
038000
018000
01C000
01C000
01E000
01E000
01E000
01E000
03E000
03C000
03C000
03C000
03C000
01C000
01C000
01C000
00E000
006000
003000
000C00
000100
ENDCHAR

STARTCHAR bar
ENCODING 124
SWIDTH 606 0
DWIDTH 30 0
BBX 7 42 12 -6
BITMAP
38
38
38
38
38
38
38
38
38
38
38
38
38
38
38
38
38
38
38
38
38
38
38
38
38
38
38
38
38
38
38
38
38
38
38
38
38
38
38
38
38
38
ENDCHAR

STARTCHAR braceright
ENCODING 125
SWIDTH 333 0
DWIDTH 17 0
BBX 17 47 -1 -10
BITMAP
200000
1C0000
060000
030000
018000
01C000
01C000
01E000
01E000
01E000
01E000
01E000
03E000
03C000
03C000
03C000
03C000
01C000
01C000
00C000
006000
003000
000C00
000700
001800
003000
006000
00C000
01C000
01C000
03C000
03C000
03C000
03E000
03E000
03E000
01E000
01E000
01E000
01E000
01C000
01C000
038000
030000
060000
180000
200000
ENDCHAR

STARTCHAR asciitilde
ENCODING 126
SWIDTH 606 0
DWIDTH 30 0
BBX 30 8 0 13
BITMAP
03E00018
0FFC0010
1FFF0010
1C3FC030
380FF8F0
3003FFE0
20007FC0
20001F80
ENDCHAR

STARTCHAR space
ENCODING 160
SWIDTH 278 0
DWIDTH 18 0
BBX 0 0 0 0
BITMAP
ENDCHAR

STARTCHAR Aogonek
ENCODING 161
SWIDTH 722 0
DWIDTH 36 0
BBX 41 46 -1 -9
BITMAP
000018000000
000038000000
000038000000
00003C000000
00007C000000
00007E000000
0000FE000000
0000FE000000
0000DF000000
00019F000000
00018F800000
00030F800000
00030F800000
000707C00000
000607C00000
000607E00000
000C03E00000
000C03E00000
001801F00000
001801F00000
001801F80000
003000F80000
003000F80000
007FFFFC0000
007FFFFC0000
0060007E0000
00C0003E0000
00C0003E0000
01C0001F0000
0180001F0000
0180001F0000
0380000F8000
0380000F8000
0780000FC000
0FC0000FE000
7FFC01FFFC00
7FFC01FFFC00
000000060000
000000060000
000000060000
0000000E0000
0000000E0000
0000000F0000
00000007C000
00000003FE00
00000001F800
ENDCHAR

STARTCHAR breve
ENCODING 162
SWIDTH 333 0
DWIDTH 17 0
BBX 18 8 -1 28
BITMAP
300180
300300
3C0700
1FFF00
1FFE00
0FFC00
07F800
01E000
ENDCHAR

STARTCHAR Lslash
ENCODING 163
SWIDTH 667 0
DWIDTH 33 0
BBX 34 36 -1 0
BITMAP
7FFFC00000
7FFFC00000
01F0000000
01F0000000
01F0000000
01F0000000
01F0000000
01F0000000
01F0000000
01F0040000
01F01C0000
01F0780000
01F0F00000
01F3C00000
01F7000000
01FE000000
01F8000000
01F0000000
07F0000000
0FF0000000
3DF0000000
79F0000000
61F0000300
01F0000300
01F0000300
01F0000300
01F0000700
01F0000700
01F0000700
01F0000F00
01F0001F00
01F0001F00
01F0003F00
03F801FE00
7FFFFFFE00
7FFFFFFE00
ENDCHAR

STARTCHAR currency
ENCODING 164
SWIDTH 606 0
DWIDTH 30 0
BBX 26 24 2 4
BITMAP
10000200
383F8700
7DFFEF80
3FFFFF00
1FC0FE00
0F003C00
0E001E00
1C000E00
1C000F00
38000700
38000700
38000700
38000700
38000700
3C000700
1C000F00
1E000E00
0E001E00
0F803C00
1FE0FE00
3FFFFF00
7DFFEF80
383F0700
10000200
ENDCHAR

STARTCHAR Lcaron
ENCODING 165
SWIDTH 667 0
DWIDTH 33 0
BBX 33 37 1 0
BITMAP
0000018000
7FFFC3E000
7FFFC3F000
01F003F000
01F003F000
01F001F000
01F0003000
01F0003000
01F0006000
01F0006000
01F000C000
01F0018000
01F0030000
01F0020000
01F0000000
01F0000000
01F0000000
01F0000000
01F0000000
01F0000000
01F0000000
01F0000000
01F0000000
01F0000300
01F0000300
01F0000300
01F0000700
01F0000600
01F0000600
01F0000E00
01F0000E00
01F0001E00
01F0003E00
01F0007E00
01F801FE00
7FFFFFFE00
7FFFFFFE00
ENDCHAR

STARTCHAR Sacute
ENCODING 166
SWIDTH 630 0
DWIDTH 31 0
BBX 29 50 2 -1
BITMAP
00007000
0000F000
0001F000
0001F000
0003E000
0007C000
00070000
000E0000
001C0000
00100000
00000000
00000000
007F0180
01FFC180
0380F380
07003F80
0E001F80
1C000F80
1C000780
38000780
38000380
38000380
38000180
3C000180
3E000180
3F000080
1FC00000
1FFC0000
1FFFC000
0FFFF800
07FFFE00
01FFFF00
003FFF80
0003FFC0
00003FE0
000007E0
600003E0
700001E0
700001E0
700000E0
780000E0
780000E0
7C0000E0
7E0001C0
7E0001C0
7F800380
7FC00700
78F01E00
707FF800
600FE000
ENDCHAR

STARTCHAR section
ENCODING 167
SWIDTH 500 0
DWIDTH 25 0
BBX 20 47 2 -9
BITMAP
007C00
03FF00
078380
0E03C0
0E03C0
1C07C0
1C07C0
1C0380
1E0000
1E0000
1F0000
0F8000
0FC000
07E000
03F000
07F800
0CFC00
187E00
303F00
301F80
700FC0
7007C0
7003E0
7801E0
7C00E0
3E00E0
3F00E0
1F80C0
0FE0C0
07F180
03FB80
01FF00
00FE00
007E00
001F00
000F80
000780
0003C0
0003C0
0F01C0
1F01C0
1F01C0
1E03C0
1E0380
0E0F00
07FE00
01F800
ENDCHAR

STARTCHAR dieresis
ENCODING 168
SWIDTH 333 0
DWIDTH 17 0
BBX 17 5 0 28
BITMAP
381C00
7C3E00
7C3E00
7C3E00
381C00
ENDCHAR

STARTCHAR Scaron
ENCODING 169
SWIDTH 630 0
DWIDTH 31 0
BBX 29 50 2 -1
BITMAP
00801800
00C03000
00607000
0038E000
003DC000
001FC000
000F8000
000F0000
00070000
00000000
00000000
00000000
007F0180
01FFC180
0380F380
07003F80
0E001F80
1C000F80
1C000780
38000780
38000380
38000380
38000180
3C000180
3E000180
3F000080
1FC00000
1FFC0000
1FFFC000
0FFFF800
07FFFE00
01FFFF00
003FFF80
0003FFC0
00003FE0
000007E0
600003E0
700001E0
700001E0
700000E0
780000E0
780000E0
7C0000E0
7E0001C0
7E0001C0
7F800380
7FC00700
78F01E00
707FF800
600FE000
ENDCHAR

STARTCHAR Scommaaccent
ENCODING 170
SWIDTH 630 0
DWIDTH 31 0
BBX 29 48 2 -11
BITMAP
007F0180
01FFC180
0380F380
07003F80
0E001F80
1C000F80
1C000780
38000780
38000380
38000380
38000180
3C000180
3E000180
3F000080
1FC00000
1FFC0000
1FFFC000
0FFFF800
07FFFE00
01FFFF00
003FFF80
0003FFC0
00003FE0
00000FE0
600003E0
700001E0
700001E0
700000E0
780000E0
780000E0
7C0000E0
7E0001C0
7E0001C0
7F800380
7FC00700
78F01E00
707FF800
600FE000
00000000
00000000
00070000
000F8000
000F8000
00078000
00018000
00018000
00030000
00040000
ENDCHAR

STARTCHAR Tcaron
ENCODING 171
SWIDTH 667 0
DWIDTH 33 0
BBX 33 48 0 0
BITMAP
0030060000
00180C0000
000C180000
000E380000
0007700000
0003E00000
0003E00000
0001C00000
0000000000
0000000000
0000000000
0000000000
3FFFFFFE00
3FFFFFFE00
3F83E07E00
3E03E03E00
3C03E01E00
3803E00F00
3803E00F00
7003E00700
7003E00700
7003E00700
7003E00300
6003E00300
6003E00300
6003E00300
0003E00000
0003E00000
0003E00000
0003E00000
0003E00000
0003E00000
0003E00000
0003E00000
0003E00000
0003E00000
0003E00000
0003E00000
0003E00000
0003E00000
0003E00000
0003E00000
0003E00000
0003E00000
0003E00000
0003F00000
00FFFF8000
00FFFF8000
ENDCHAR

STARTCHAR Zacute
ENCODING 172
SWIDTH 611 0
DWIDTH 31 0
BBX 30 49 0 0
BITMAP
00001000
00007800
00007800
0000F800
0001F000
0001E000
00038000
00070000
000E0000
00080000
00000000
00000000
00000000
0FFFFFF0
0FFFFFF0
0FE003F0
1F8003E0
1F0007E0
1E000FC0
1C000F80
1C001F80
1C003F00
18003E00
18007E00
18007C00
0000F800
0001F800
0001F000
0003F000
0007E000
0007C000
000FC000
001F8000
001F0000
003F0000
007E0018
007C0018
00FC0038
01F80030
01F00030
03F00030
03E00070
07E00070
0FC000F0
0F8001F0
1F8003F0
3F000FF0
3FFFFFF0
3FFFFFF0
ENDCHAR

STARTCHAR hyphen
ENCODING 173
SWIDTH 333 0
DWIDTH 17 0
BBX 12 4 2 9
BITMAP
7FE0
7FE0
7FE0
7FE0
ENDCHAR

STARTCHAR Zcaron
ENCODING 174
SWIDTH 611 0
DWIDTH 31 0
BBX 30 48 0 0
BITMAP
00600800
00303800
00387000
001CE000
000FE000
000FC000
00078000
00038000
00000000
00000000
00000000
00000000
0FFFFFF0
0FFFFFF0
0FE003F0
1F8003E0
1F0007E0
1E000FC0
1C000F80
1C001F80
1C003F00
18003E00
18007E00
18007C00
0000F800
0001F800
0001F000
0003F000
0007E000
0007C000
000FC000
001F8000
001F0000
003F0000
007E0018
007C0018
00FC0038
01F80030
01F00030
03F00030
03E00070
07E00070
0FC000F0
0F8001F0
1F8003F0
3F000FF0
3FFFFFF0
3FFFFFF0
ENDCHAR

STARTCHAR Zdotaccent
ENCODING 175
SWIDTH 611 0
DWIDTH 31 0
BBX 29 45 1 0
BITMAP
00070000
000F8000
000F8000
000F8000
00070000
00000000
00000000
00000000
00000000
1FFFFFF0
1FFFFFF0
1FC003E0
1F0007E0
1E000FC0
1C000F80
1C001F80
18003F00
18003E00
18007E00
3000FC00
3000F800
0001F800
0003F000
0003E000
0007E000
0007C000
000FC000
001F8000
001F0000
003F0000
007E0000
007C0030
00FC0030
01F80030
01F00030
03F00070
03E00070
07C000F0
0FC000F0
0F8001F0
1F8003E0
3F0007E0
3E001FE0
7FFFFFE0
7FFFFFE0
ENDCHAR

STARTCHAR degree
ENCODING 176
SWIDTH 400 0
DWIDTH 20 0
BBX 17 15 2 19
BITMAP
03E000
0FF800
1FFC00
3C1E00
380E00
700700
700700
700700
700700
700700
380E00
3C1E00
1FFC00
0FF800
03E000
ENDCHAR

STARTCHAR aogonek
ENCODING 177
SWIDTH 556 0
DWIDTH 28 0
BBX 30 33 1 -9
BITMAP
007F0000
01FFC000
0783F000
0E00F000
1E007800
1F007800
1F007800
1F007800
1F007800
0E007800
0007F800
007FF800
01F87800
07C07800
0F007800
1E007800
3C007800
7C007800
7C00F800
7C00F800
3C01F800
3E033800
1F0E3C80
0FFC1FC0
03F01F00
00003000
00003000
00007000
00007000
00007800
00003E00
00003FF0
00000FC0
ENDCHAR

STARTCHAR ogonek
ENCODING 178
SWIDTH 333 0
DWIDTH 17 0
BBX 14 10 2 -9
BITMAP
1000
3000
3000
7000
7000
7800
7800
3E00
1FF0
0FC0
ENDCHAR

STARTCHAR lslash
ENCODING 179
SWIDTH 315 0
DWIDTH 16 0
BBX 16 37 0 0
BITMAP
07C0
7FC0
07C0
03C0
03C0
03C0
03C0
03C0
03C0
03C0
03C0
03C4
03CC
03D8
03F0
03E0
03C0
03C0
07C0
1FC0
3BC0
73C0
43C0
03C0
03C0
03C0
03C0
03C0
03C0
03C0
03C0
03C0
03C0
03C0
07C0
7FFC
7FFC
ENDCHAR

STARTCHAR acute
ENCODING 180
SWIDTH 333 0
DWIDTH 17 0
BBX 13 10 3 27
BITMAP
0060
00F0
01F0
03E0
03C0
0780
0F00
0C00
1800
3000
ENDCHAR

STARTCHAR lcaron
ENCODING 181
SWIDTH 385 0
DWIDTH 19 0
BBX 19 37 0 0
BITMAP
7FC780
7FCFC0
0FCFC0
03C7C0
03C0C0
03C0C0
03C080
03C180
03C300
03CE00
03C800
03C000
03C000
03C000
03C000
03C000
03C000
03C000
03C000
03C000
03C000
03C000
03C000
03C000
03C000
03C000
03C000
03C000
03C000
03C000
03C000
03C000
03C000
03C000
07C000
7FFC00
7FFC00
ENDCHAR

STARTCHAR sacute
ENCODING 182
SWIDTH 463 0
DWIDTH 23 0
BBX 21 38 1 -1
BITMAP
000780
000F80
000F80
001F00
003E00
003800
007000
00E000
008000
010000
000000
000000
000000
01F840
07FEC0
0E0FC0
1C03C0
1801C0
1800C0
3800C0
380040
3C0060
1F0000
1FF800
0FFF80
07FFC0
03FFE0
003FE0
3001F0
3000F0
300070
380070
380070
3C0060
3E00E0
3F81C0
39FF80
307E00
ENDCHAR

STARTCHAR caron
ENCODING 183
SWIDTH 333 0
DWIDTH 17 0
BBX 17 9 0 28
BITMAP
600200
300C00
181C00
0C3800
0E7000
07F000
03E000
03C000
01C000
ENDCHAR

STARTCHAR commaaccent
ENCODING 184
SWIDTH 333 0
DWIDTH 17 0
BBX 9 8 4 -10
BITMAP
1C00
3E00
3E00
1E00
0600
0600
0C00
1000
ENDCHAR

STARTCHAR scaron
ENCODING 185
SWIDTH 463 0
DWIDTH 23 0
BBX 21 38 1 -1
BITMAP
040080
060380
030700
01CE00
01FE00
00FC00
007800
007000
000000
000000
000000
000000
000000
01F840
07FEC0
0E0FC0
1C03C0
1801C0
1800C0
3800C0
380040
3C0060
1F8000
1FF800
0FFF00
07FFC0
03FFE0
003FE0
3001F0
3000F0
300070
380070
380070
3C0060
3E00E0
3F81C0
39FF80
307E00
ENDCHAR

STARTCHAR scommaaccent
ENCODING 186
SWIDTH 463 0
DWIDTH 23 0
BBX 21 35 1 -11
BITMAP
01F040
07FEC0
0E0FC0
1C03C0
1801C0
1800C0
3800C0
3800C0
3C0060
1F0000
1FF800
0FFF00
07FFC0
03FFE0
003FE0
3003F0
3000F0
300070
380070
380070
3C0060
3E00E0
3F83C0
3BFF80
30FE00
000000
000000
007000
00F800
00F800
007800
001800
001800
003000
004000
ENDCHAR

STARTCHAR tcaron
ENCODING 187
SWIDTH 461 0
DWIDTH 23 0
BBX 20 37 1 0
BITMAP
000180
0003C0
0007E0
0007E0
0003E0
018060
018040
0180C0
018180
018300
038600
038000
078000
0F8000
7FFF80
7FFF80
078000
078000
078000
078000
078000
078000
078000
078000
078000
078000
078000
078000
078040
0780C0
0780C0
0780C0
078080
07C180
03E300
03FF00
00FC00
ENDCHAR

STARTCHAR zacute
ENCODING 188
SWIDTH 481 0
DWIDTH 24 0
BBX 23 37 1 0
BITMAP
000100
000780
000780
000F80
001F00
003E00
003800
007000
00E000
008000
000000
000000
000000
000000
1FFFF8
1FFFF8
1E01F0
3C01E0
3803E0
3807C0
300F80
300F00
001F00
003E00
007C00
007C00
00F800
01F000
03E008
03E018
07C018
0F8018
1F0038
1F0078
3E00F8
7FFFF8
7FFFF8
ENDCHAR

STARTCHAR hungarumlaut
ENCODING 189
SWIDTH 333 0
DWIDTH 17 0
BBX 23 10 1 27
BITMAP
00C030
01E078
03E0F8
03E0F8
07C1F0
0F03C0
0E0780
1C0700
300C00
601800
ENDCHAR

STARTCHAR zcaron
ENCODING 190
SWIDTH 481 0
DWIDTH 24 0
BBX 23 37 1 0
BITMAP
0C0040
060080
030380
018700
01CE00
00FE00
007C00
007800
003800
000000
000000
000000
000000
000000
1FFFF8
1FFFF8
1E01F0
3C01E0
3803E0
3807C0
300F80
300F00
001F00
003E00
007C00
007C00
00F800
01F000
03E008
03E018
07C018
0F8018
1F0038
1F0078
3E00F8
7FFFF8
7FFFF8
ENDCHAR

STARTCHAR zdotaccent
ENCODING 191
SWIDTH 481 0
DWIDTH 24 0
BBX 23 33 1 0
BITMAP
003800
007C00
007C00
007C00
003800
000000
000000
000000
000000
000000
1FFFF8
1FFFF8
1E00F0
1C01F0
1803E0
1807C0
180780
300F80
001F00
003E00
003C00
007C00
00F800
01F000
01E008
03E008
07C018
0F8018
0F8038
1F0038
3E00F8
3FFFF8
3FFFF8
ENDCHAR

STARTCHAR Racute
ENCODING 192
SWIDTH 722 0
DWIDTH 36 0
BBX 36 50 0 -1
BITMAP
0000060000
00000F0000
00001F0000
00001F0000
00003E0000
0000780000
0000F00000
0000E00000
0001800000
0003000000
0000000000
0000000000
0000000000
7FFFFF0000
7FFFFFC000
01F803F000
01F001F800
01F000FC00
01F0007C00
01F0007C00
01F0007E00
01F0007E00
01F0007E00
01F0007E00
01F0007E00
01F0007C00
01F0007C00
01F000F800
01F001F000
01F007E000
01FFFF0000
01FFF00000
01F03E0000
01F00F8000
01F007C000
01F003C000
01F003E000
01F003E000
01F003E000
01F001E000
01F001F000
01F001F000
01F001F060
01F001F860
01F001F840
01F001F8C0
01F000FCC0
7FFFC0FF80
7FFFC07F80
0000003E00
ENDCHAR

STARTCHAR Aacute
ENCODING 193
SWIDTH 722 0
DWIDTH 36 0
BBX 40 49 -2 0
BITMAP
0000018000
000003C000
000007C000
000007C000
00000F8000
00001E0000
00003C0000
0000380000
0000600000
0000C00000
0000000000
0000000000
0000180000
00001C0000
00001C0000
00003E0000
00003E0000
00007E0000
00007F0000
00007F0000
0000DF8000
0000CF8000
00018F8000
000187C000
000187C000
000307C000
000303E000
000603E000
000603F000
000601F000
000C01F000
000C00F800
001800F800
001800FC00
0018007C00
003FFFFC00
003FFFFE00
0060003E00
0060003F00
00E0001F00
00C0001F00
00C0000F80
01C0000F80
0180000FC0
03800007C0
03C00007C0
0FE0000FE0
3FFE00FFFC
3FFE00FFFC
ENDCHAR

STARTCHAR Acircumflex
ENCODING 194
SWIDTH 722 0
DWIDTH 36 0
BBX 40 49 -2 0
BITMAP
0000180000
00003C0000
00007E0000
00007E0000
0000E70000
0001C38000
0001818000
000300C000
0006006000
0000000000
0000000000
0000000000
0000180000
00001C0000
00001C0000
00003E0000
00003E0000
00007E0000
00007F0000
00007F0000
0000DF8000
0000CF8000
00018F8000
000187C000
000187C000
000307C000
000303E000
000603E000
000603F000
000601F000
000C01F000
000C00F800
001800F800
001800FC00
0018007C00
003FFFFC00
003FFFFE00
0060003E00
0060003F00
00E0001F00
00C0001F00
00C0000F80
01C0000F80
0180000FC0
03800007C0
03C00007C0
0FE0000FE0
3FFE00FFFC
3FFE00FFFC
ENDCHAR

STARTCHAR Abreve
ENCODING 195
SWIDTH 722 0
DWIDTH 36 0
BBX 40 49 -2 0
BITMAP
0004002000
0006006000
0007006000
000781E000
0003FFC000
0001FFC000
0000FF8000
00007E0000
0000000000
0000000000
0000000000
0000000000
0000180000
00001C0000
00003C0000
00003E0000
00003E0000
00007E0000
00007F0000
0000DF0000
0000DF8000
0000CF8000
00018F8000
000187C000
000307C000
000307E000
000303E000
000603E000
000601F000
000E01F000
000C01F000
000C00F800
001800F800
001800FC00
0038007C00
003FFFFC00
003FFFFE00
0060003E00
0060003F00
00E0001F00
00C0001F00
00C0000F80
01C0000F80
0180000FC0
03800007C0
03C00007C0
0FE0000FE0
3FFE00FFFC
3FFE00FFFC
ENDCHAR

STARTCHAR Adieresis
ENCODING 196
SWIDTH 722 0
DWIDTH 36 0
BBX 40 46 -2 0
BITMAP
000381C000
0007C3E000
0007C3E000
0007C3E000
000381C000
0000000000
0000000000
0000000000
0000000000
0000180000
00001C0000
00001C0000
00003C0000
00003E0000
00007E0000
00007F0000
00007F0000
0000DF0000
0000CF8000
00018F8000
00018FC000
000187C000
000307C000
000303E000
000603E000
000603E000
000601F000
000C01F000
000C01F800
001800F800
001800F800
0018007C00
003FFFFC00
003FFFFE00
0060003E00
0060003E00
0060001F00
00C0001F00
00C0001F80
01C0000F80
0180000F80
0180000FC0
03C00007C0
07E0000FE0
3FFE00FFFC
3FFE00FFFC
ENDCHAR

STARTCHAR Lacute
ENCODING 197
SWIDTH 667 0
DWIDTH 33 0
BBX 34 49 0 0
BITMAP
00000C0000
00001E0000
00003E0000
00007C0000
00007C0000
0000F00000
0001E00000
0001C00000
0003000000
0006000000
0000000000
0000000000
0000000000
7FFFC00000
7FFFC00000
01F8000000
01F0000000
01F0000000
01F0000000
01F0000000
01F0000000
01F0000000
01F0000000
01F0000000
01F0000000
01F0000000
01F0000000
01F0000000
01F0000000
01F0000000
01F0000000
01F0000000
01F0000000
01F0000000
01F0000000
01F0000300
01F0000300
01F0000300
01F0000300
01F0000700
01F0000700
01F0000700
01F0000F00
01F0001F00
01F0001F00
01F0007F00
01F801FE00
7FFFFFFE00
7FFFFFFE00
ENDCHAR

STARTCHAR Cacute
ENCODING 198
SWIDTH 722 0
DWIDTH 36 0
BBX 34 50 2 -1
BITMAP
00000C0000
00001E0000
00003E0000
00003E0000
00007C0000
0000F00000
0001E00000
0001C00000
0003000000
0006000000
0000000000
0000000000
0001FC0600
000FFF0E00
003E03CE00
007801EE00
00F0007E00
01E0003E00
03E0003E00
07C0001E00
07C0001E00
0F80000E00
0F80000E00
1F80000600
1F80000600
1F80000600
1F00000200
3F00000000
3F00000000
3F00000000
3F00000000
3F00000000
3F00000000
3F00000000
3F00000000
3F00000000
1F00000000
1F80000300
1F80000300
1F80000300
0F80000600
0FC0000600
07C0000600
03E0000C00
03F0001800
01F8003800
007C007000
003F03E000
000FFF8000
0001FC0000
ENDCHAR

STARTCHAR Ccedilla
ENCODING 199
SWIDTH 722 0
DWIDTH 36 0
BBX 34 47 2 -10
BITMAP
0001F80600
000FFF0E00
003E07CE00
007801FE00
00F0007E00
01E0007E00
03E0003E00
07C0001E00
07C0001E00
0F80000E00
0F80000E00
1F80000600
1F80000600
1F80000600
1F00000200
3F00000000
3F00000000
3F00000000
3F00000000
3F00000000
3F00000000
3F00000000
3F00000000
3F00000000
1F00000000
1F80000300
1F80000300
1F80000300
0F80000600
0FC0000600
07C0000600
03E0000C00
03E0001800
01F0003800
007C007000
003F01E000
000FFF8000
0003FC0000
0000780000
0000FC0000
00003E0000
00001E0000
00001E0000
00001E0000
00003C0000
0007F80000
0007F00000
ENDCHAR

STARTCHAR Ccaron
ENCODING 200
SWIDTH 722 0
DWIDTH 36 0
BBX 34 50 2 -1
BITMAP
0030030000
0018060000
000C0C0000
000E1C0000
0007380000
0003F00000
0003F00000
0001E00000
0000C00000
0000000000
0000000000
0000000000
0001FC0600
000FFF0E00
003E03CE00
007801EE00
00F0007E00
01E0003E00
03E0003E00
07C0001E00
07C0001E00
0F80000E00
0F80000E00
1F80000600
1F80000600
1F80000600
1F00000200
3F00000000
3F00000000
3F00000000
3F00000000
3F00000000
3F00000000
3F00000000
3F00000000
3F00000000
1F00000000
1F80000300
1F80000300
1F80000300
0F80000600
0FC0000600
07C0000600
03E0000C00
03F0001800
01F8003800
007C007000
003F03E000
000FFF8000
0001FC0000
ENDCHAR

STARTCHAR Eacute
ENCODING 201
SWIDTH 722 0
DWIDTH 36 0
BBX 34 49 1 0
BITMAP
0000040000
00001E0000
00003E0000
00003E0000
00007C0000
0000F80000
0000E00000
0001C00000
0003800000
0006000000
0000000000
0000000000
0000000000
3FFFFFFE00
3FFFFFFE00
01F000FE00
01F0003E00
01F0001E00
01F0001E00
01F0000E00
01F0000E00
01F0000600
01F0060600
01F0060600
01F0060600
01F00E0000
01F00E0000
01F01E0000
01F03E0000
01FFFE0000
01FFFE0000
01F03E0000
01F01E0000
01F00E0000
01F00E0000
01F0060300
01F0060300
01F0060300
01F0060300
01F0000300
01F0000700
01F0000700
01F0000F00
01F0000F00
01F0001F00
01F0003F00
01F800FF00
3FFFFFFF00
3FFFFFFF00
ENDCHAR

STARTCHAR Eogonek
ENCODING 202
SWIDTH 722 0
DWIDTH 36 0
BBX 35 45 2 -9
BITMAP
3FFFFFFC00
3FFFFFFC00
01F000FC00
01F0003C00
01F0001C00
01F0001E00
01F0000E00
01F0000E00
01F0000600
01F0040600
01F0040600
01F00C0600
01F00C0000
01F00C0000
01F01C0000
01F03C0000
01FFFC0000
01FFFC0000
01F03C0000
01F01C0000
01F00C0000
01F00C0000
01F00C0300
01F0040300
01F0040300
01F0040300
01F0000700
01F0000700
01F0000700
01F0000F00
01F0001F00
01F0001F00
01F0007F00
01F801FE00
3FFFFFFE00
3FFFFFFE00
0000008000
0000018000
0000018000
0000038000
0000038000
000003C000
000001F000
000000FF80
0000007E00
ENDCHAR

STARTCHAR Edieresis
ENCODING 203
SWIDTH 722 0
DWIDTH 36 0
BBX 33 45 1 0
BITMAP
001C0E0000
003E1F0000
003E1F0000
003E1F0000
001C0E0000
0000000000
0000000000
0000000000
0000000000
3FFFFFFC00
3FFFFFFC00
01F000FC00
01F0003C00
01F0001C00
01F0001E00
01F0000E00
01F0000E00
01F0000600
01F0040600
01F0040600
01F00C0600
01F00C0000
01F00C0000
01F01C0000
01F03C0000
01FFFC0000
01FFFC0000
01F07C0000
01F01C0000
01F00C0000
01F00C0000
01F00C0300
01F0040300
01F0040300
01F0040300
01F0000700
01F0000700
01F0000700
01F0000F00
01F0001F00
01F0001F00
01F0007F00
01F001FE00
3FFFFFFE00
3FFFFFFE00
ENDCHAR

STARTCHAR Ecaron
ENCODING 204
SWIDTH 722 0
DWIDTH 36 0
BBX 34 48 1 0
BITMAP
0018060000
001C0E0000
000E1C0000
0007380000
0003F00000
0003F00000
0001E00000
0000C00000
0000000000
0000000000
0000000000
0000000000
3FFFFFFE00
3FFFFFFE00
01F000FE00
01F0003E00
01F0001E00
01F0001E00
01F0000E00
01F0000E00
01F0000600
01F0060600
01F0060600
01F0060600
01F00E0000
01F00E0000
01F01E0000
01F03E0000
01FFFE0000
01FFFE0000
01F03E0000
01F01E0000
01F00E0000
01F00E0000
01F0060300
01F0060300
01F0060300
01F0060300
01F0000300
01F0000700
01F0000700
01F0000F00
01F0000F00
01F0001F00
01F0003F00
01F800FF00
3FFFFFFF00
3FFFFFFF00
ENDCHAR

STARTCHAR Iacute
ENCODING 205
SWIDTH 407 0
DWIDTH 20 0
BBX 19 49 1 0
BITMAP
000400
000F00
001F00
003E00
007C00
007800
00F000
01C000
018000
030000
000000
000000
000000
7FFFC0
7FFFC0
01F000
01F000
01F000
01F000
01F000
01F000
01F000
01F000
01F000
01F000
01F000
01F000
01F000
01F000
01F000
01F000
01F000
01F000
01F000
01F000
01F000
01F000
01F000
01F000
01F000
01F000
01F000
01F000
01F000
01F000
01F000
01F000
7FFFC0
7FFFC0
ENDCHAR

STARTCHAR Icircumflex
ENCODING 206
SWIDTH 407 0
DWIDTH 20 0
BBX 19 48 1 0
BITMAP
00E000
01F000
03F800
03B800
071C00
0E0E00
0C0600
180300
000000
000000
000000
000000
7FFFC0
7FFFC0
01F000
01F000
01F000
01F000
01F000
01F000
01F000
01F000
01F000
01F000
01F000
01F000
01F000
01F000
01F000
01F000
01F000
01F000
01F000
01F000
01F000
01F000
01F000
01F000
01F000
01F000
01F000
01F000
01F000
01F000
01F000
01F000
7FFFC0
7FFFC0
ENDCHAR

STARTCHAR Dcaron
ENCODING 207
SWIDTH 778 0
DWIDTH 39 0
BBX 37 48 0 0
BITMAP
000C018000
0006030000
0003060000
00038E0000
0001FC0000
0000F80000
0000F80000
0000700000
0000000000
0000000000
0000000000
0000000000
7FFFFF0000
7FFFFFE000
01F801F800
01F0007C00
01F0003E00
01F0001F00
01F0000F80
01F0000F80
01F00007C0
01F00007C0
01F00007E0
01F00007E0
01F00003E0
01F00003F0
01F00003F0
01F00003F0
01F00003F0
01F00003F0
01F00003F0
01F00003F0
01F00003F0
01F00003F0
01F00003F0
01F00003E0
01F00003E0
01F00007E0
01F00007C0
01F00007C0
01F0000FC0
01F0000F80
01F0001F00
01F0003E00
01F0007C00
01F803F800
7FFFFFE000
7FFFFF0000
ENDCHAR

STARTCHAR Dcroat
ENCODING 208
SWIDTH 778 0
DWIDTH 39 0
BBX 37 36 -1 0
BITMAP
7FFFFF8000
7FFFFFE000
01F801F800
01F0007C00
01F0003E00
01F0001F00
01F0000F80
01F0000F80
01F00007C0
01F00007C0
01F00007E0
01F00007E0
01F00003E0
01F00003F0
01F00003F0
01F00003F0
01F00003F0
7FFFE003F0
7FFFE003F0
01F00003F0
01F00003F0
01F00003F0
01F00003F0
01F00003E0
01F00003E0
01F00007E0
01F00007C0
01F00007C0
01F0000F80
01F0000F80
01F0001F00
01F0003E00
01F0007C00
01F801F800
7FFFFFE000
7FFFFE0000
ENDCHAR

STARTCHAR Nacute
ENCODING 209
SWIDTH 815 0
DWIDTH 41 0
BBX 41 49 1 0
BITMAP
000000800000
000001C00000
000003E00000
000007C00000
00000F800000
00000F000000
00001E000000
000038000000
000030000000
000040000000
000000000000
000000000000
000000000000
7FC0001FFE00
7FE0001FFE00
07F00007F800
03F80001E000
01FC0001E000
01FC0000C000
01FE0000C000
01BF0000C000
01BF8000C000
019F8000C000
018FC000C000
0187E000C000
0183F000C000
0183F800C000
0181F800C000
0180FC00C000
01807E00C000
01807F00C000
01803F00C000
01801F80C000
01800FC0C000
018007E0C000
018007F0C000
018003F0C000
018001F8C000
018000FCC000
018000FEC000
0180007EC000
0180003FC000
0180001FC000
0180001FC000
03C0000FC000
07C00007C000
0FF00003C000
7FFE0001C000
7FFE0001C000
ENDCHAR

STARTCHAR Ncaron
ENCODING 210
SWIDTH 815 0
DWIDTH 41 0
BBX 41 48 1 0
BITMAP
000300600000
000180C00000
0001C1800000
0000E7800000
00007F000000
00003E000000
00003C000000
00001C000000
000000000000
000000000000
000000000000
000000000000
7FC0001FFE00
7FE0001FFE00
07F00007F800
03F80001E000
01FC0001E000
01FC0000C000
01FE0000C000
01BF0000C000
01BF8000C000
019F8000C000
018FC000C000
0187E000C000
0183F000C000
0183F800C000
0181F800C000
0180FC00C000
01807E00C000
01807F00C000
01803F00C000
01801F80C000
01800FC0C000
018007E0C000
018007F0C000
018003F0C000
018001F8C000
018000FCC000
018000FEC000
0180007EC000
0180003FC000
0180001FC000
0180001FC000
03C0000FC000
07C00007C000
0FF00003C000
7FFE0001C000
7FFE0001C000
ENDCHAR

STARTCHAR Oacute
ENCODING 211
SWIDTH 778 0
DWIDTH 39 0
BBX 37 50 1 -1
BITMAP
0000030000
00000F8000
00000F8000
00001F0000
00003E0000
00003C0000
0000700000
0000E00000
0000C00000
0001000000
0000000000
0000000000
0001FC0000
000FFF8000
003E03E000
007800F000
00F0007800
01E0003C00
03E0003E00
07C0001F00
07C0001F00
0F80000F80
0F80000F80
1F80000FC0
1F80000FC0
1F000007C0
3F000007E0
3F000007E0
3F000007E0
3F000007E0
3F000007E0
3F000007E0
3F000007E0
3F000007E0
3F000007E0
3F000007E0
1F800007C0
1F800007C0
1F80000FC0
0F80000F80
0F80000F80
07C0001F00
07C0001F00
03E0003E00
01E0003C00
00F0007800
007800F000
003E03E000
000FFF8000
0001FC0000
ENDCHAR

STARTCHAR Ocircumflex
ENCODING 212
SWIDTH 778 0
DWIDTH 39 0
BBX 37 50 1 -1
BITMAP
0000700000
0000700000
0000F80000
0001FC0000
0001DC0000
00038E0000
0007070000
0006030000
000C018000
0000000000
0000000000
0000000000
0001FC0000
000FFF8000
003E03E000
007800F000
00F0007800
01E0003C00
03E0003E00
07C0001F00
07C0001F00
0F80000F80
0F80000F80
1F80000FC0
1F80000FC0
1F000007C0
3F000007E0
3F000007E0
3F000007E0
3F000007E0
3F000007E0
3F000007E0
3F000007E0
3F000007E0
3F000007E0
3F000007E0
1F800007C0
1F800007C0
1F80000FC0
0F80000F80
0F80000F80
07C0001F00
07C0001F00
03E0003E00
01E0003C00
00F0007800
007800F000
003E03E000
000FFF8000
0001FC0000
ENDCHAR

STARTCHAR Ohungarumlaut
ENCODING 213
SWIDTH 778 0
DWIDTH 39 0
BBX 37 50 1 -1
BITMAP
0000301800
0000783C00
0000F87C00
0001F07C00
0003E0F800
0003C1F000
000701C000
000E038000
000C070000
0010040000
0000000000
0000000000
0001FC0000
000FFF8000
003E03E000
007800F000
00F0007800
01E0003C00
03E0003E00
07C0001F00
07C0001F00
0F80000F80
0F80000F80
1F80000FC0
1F80000FC0
1F000007C0
3F000007E0
3F000007E0
3F000007E0
3F000007E0
3F000007E0
3F000007E0
3F000007E0
3F000007E0
3F000007E0
3F000007E0
1F800007C0
1F800007C0
1F80000FC0
0F80000F80
0F80000F80
07C0001F00
07C0001F00
03E0003E00
01E0003C00
00F0007800
007800F000
003E03E000
000FFF8000
0001FC0000
ENDCHAR

STARTCHAR Odieresis
ENCODING 214
SWIDTH 778 0
DWIDTH 39 0
BBX 37 47 1 -1
BITMAP
000E038000
001F07C000
001F07C000
001F07C000
000E038000
0000000000
0000000000
0000000000
0000000000
0001FC0000
000FFF8000
003E03E000
007800F000
00F0007800
01E0003C00
03E0001E00
07C0001F00
07C0000F00
0F80000F80
0F80000FC0
1F80000FC0
1F000007C0
1F000007C0
3F000007E0
3F000007E0
3F000007E0
3F000007E0
3F000007E0
3F000007E0
3F000007E0
3F000007E0
3F000007E0
3F000007E0
1F000007C0
1F800007C0
1F80000FC0
0F80000F80
0F80000F80
07C0000F00
07C0001F00
03C0001E00
01E0003C00
00F0007800
007800F000
003E03E000
000FFF8000
0001FC0000
ENDCHAR

STARTCHAR multiply
ENCODING 215
SWIDTH 606 0
DWIDTH 30 0
BBX 28 24 1 5
BITMAP
18000180
3C0003C0
3E0007C0
1F000F80
0F801F00
07C03E00
03E07C00
01F0F800
00F9F000
007FE000
003FC000
001F8000
001F8000
003FC000
007FE000
00F9F000
01F0F800
03E07C00
07C03E00
0F801F00
1F000F80
3E0007C0
3C0003C0
18000180
ENDCHAR

STARTCHAR Rcaron
ENCODING 216
SWIDTH 722 0
DWIDTH 36 0
BBX 36 49 0 -1
BITMAP
000C030000
000E060000
00070E0000
00039C0000
0001F80000
0001F80000
0000F00000
0000600000
0000000000
0000000000
0000000000
0000000000
7FFFFF0000
7FFFFFC000
01F803F000
01F001F800
01F000FC00
01F0007C00
01F0007C00
01F0007E00
01F0007E00
01F0007E00
01F0007E00
01F0007E00
01F0007C00
01F0007C00
01F000F800
01F001F000
01F007E000
01FFFF0000
01FFF00000
01F03E0000
01F00F8000
01F007C000
01F003C000
01F003E000
01F003E000
01F003E000
01F001E000
01F001F000
01F001F000
01F001F060
01F001F860
01F001F840
01F001F8C0
01F000FCC0
7FFFC0FF80
7FFFC07F80
0000003E00
ENDCHAR

STARTCHAR Uring
ENCODING 217
SWIDTH 815 0
DWIDTH 41 0
BBX 41 50 0 -1
BITMAP
00003C000000
00007F000000
0000C3000000
000181800000
000181800000
000181800000
000181800000
0000C3000000
00007F000000
00003C000000
000000000000
000000000000
000000000000
7FFFC03FFE00
7FFFC03FFE00
01F00007F000
01F00003E000
01F00001C000
01F00001C000
01F00001C000
01F00001C000
01F00001C000
01F00001C000
01F00001C000
01F00001C000
01F00001C000
01F00001C000
01F00001C000
01F00001C000
01F00001C000
01F00001C000
01F00001C000
01F00001C000
01F00001C000
01F00001C000
01F00001C000
01F00001C000
01F00001C000
01F00001C000
01F00001C000
01F000018000
01F800018000
01F800038000
00F800038000
00FC00070000
007E001E0000
003F807C0000
001FFFF80000
0007FFE00000
0000FF000000
ENDCHAR

STARTCHAR Uacute
ENCODING 218
SWIDTH 815 0
DWIDTH 41 0
BBX 41 50 0 -1
BITMAP
000000800000
000003C00000
000003C00000
000007C00000
00000F800000
00000F000000
00001C000000
000038000000
000030000000
000040000000
000000000000
000000000000
000000000000
7FFFC03FFE00
7FFFC03FFE00
01F80007F000
01F00003E000
01F00001C000
01F00001C000
01F00001C000
01F00001C000
01F00001C000
01F00001C000
01F00001C000
01F00001C000
01F00001C000
01F00001C000
01F00001C000
01F00001C000
01F00001C000
01F00001C000
01F00001C000
01F00001C000
01F00001C000
01F00001C000
01F00001C000
01F00001C000
01F00001C000
01F00001C000
01F00001C000
01F000018000
01F800018000
00F800038000
00FC00038000
00FC00070000
007E000E0000
003F803C0000
001FFFF80000
0007FFE00000
0000FF000000
ENDCHAR

STARTCHAR Uhungarumlaut
ENCODING 219
SWIDTH 815 0
DWIDTH 41 0
BBX 41 50 0 -1
BITMAP
000008020000
00003C0F0000
00003C1F0000
00007C1F0000
0000F83E0000
0000F07C0000
0001C0700000
000380E00000
000301C00000
000601000000
000000000000
000000000000
000000000000
7FFFC03FFE00
7FFFC03FFE00
01F80007F000
01F00003E000
01F00001C000
01F00001C000
01F00001C000
01F00001C000
01F00001C000
01F00001C000
01F00001C000
01F00001C000
01F00001C000
01F00001C000
01F00001C000
01F00001C000
01F00001C000
01F00001C000
01F00001C000
01F00001C000
01F00001C000
01F00001C000
01F00001C000
01F00001C000
01F00001C000
01F00001C000
01F00001C000
01F000018000
01F800018000
00F800038000
00FC00038000
00FC00070000
007E000E0000
003F803C0000
001FFFF80000
0007FFE00000
0000FF000000
ENDCHAR

STARTCHAR Udieresis
ENCODING 220
SWIDTH 815 0
DWIDTH 41 0
BBX 41 46 0 -1
BITMAP
000381C00000
0007C3E00000
0007C3E00000
0007C3E00000
000381C00000
000000000000
000000000000
000000000000
000000000000
7FFFC07FFE00
7FFFC07FFE00
01F00007F000
01F00003E000
01F00001C000
01F00001C000
01F00001C000
01F00001C000
01F00001C000
01F00001C000
01F00001C000
01F00001C000
01F00001C000
01F00001C000
01F00001C000
01F00001C000
01F00001C000
01F00001C000
01F00001C000
01F00001C000
01F00001C000
01F00001C000
01F00001C000
01F00001C000
01F00001C000
01F00001C000
01F00001C000
01F000018000
01F800018000
01F800038000
00F800038000
00FC00070000
007E001E0000
003F807C0000
001FFFF80000
0007FFE00000
0000FF000000
ENDCHAR

STARTCHAR Yacute
ENCODING 221
SWIDTH 704 0
DWIDTH 35 0
BBX 39 49 -2 0
BITMAP
0000018000
000003C000
000007C000
00000FC000
00000F8000
00001E0000
00003C0000
0000380000
0000600000
0000C00000
0000000000
0000000000
0000000000
3FFFC0FFFC
3FFFC0FFFC
07F8000FC0
03F0000780
01F8000700
00F8000700
00FC000E00
007E000C00
003E001C00
003F001800
001F803800
000F803000
000FC07000
0007E06000
0003E0E000
0003F1C000
0001F9C000
0000FB8000
0000FF0000
00007F0000
00007E0000
00003E0000
00003E0000
00003E0000
00003E0000
00003E0000
00003E0000
00003E0000
00003E0000
00003E0000
00003E0000
00003E0000
00003E0000
00003E0000
000FFFF800
000FFFF800
ENDCHAR

STARTCHAR Tcommaaccent
ENCODING 222
SWIDTH 667 0
DWIDTH 33 0
BBX 33 46 0 -10
BITMAP
3FFFFFFE00
3FFFFFFE00
3F83E07E00
3E03E03E00
3C03E01E00
3803E00F00
3803E00F00
7003E00700
7003E00700
7003E00700
7003E00300
6003E00300
6003E00300
6003E00300
0003E00000
0003E00000
0003E00000
0003E00000
0003E00000
0003E00000
0003E00000
0003E00000
0003E00000
0003E00000
0003E00000
0003E00000
0003E00000
0003E00000
0003E00000
0003E00000
0003E00000
0003E00000
0003E00000
0003F00000
00FFFF8000
00FFFF8000
0000000000
0000000000
0001C00000
0003E00000
0003E00000
0001E00000
0000600000
0000600000
0000C00000
0001000000
ENDCHAR

STARTCHAR germandbls
ENCODING 223
SWIDTH 574 0
DWIDTH 29 0
BBX 28 37 0 0
BITMAP
000FE000
003FF800
00783E00
00F01F00
01E00F00
01C00780
03C00780
03C00780
03C00780
03C00780
03C00780
03C00700
03C00E00
03C01C00
03C1F800
03C1E000
03C07C00
03C01F00
03C00F80
03C00780
03C007C0
03C003C0
03C003E0
03C003E0
03C003E0
03C003E0
03C003E0
03C003E0
03C003E0
03C003C0
03C383C0
03C3C380
03C7C780
03C78700
07E38E00
3FF1FC00
3FF0F000
ENDCHAR

STARTCHAR racute
ENCODING 224
SWIDTH 444 0
DWIDTH 22 0
BBX 23 37 0 0
BITMAP
000380
000780
000F80
000F80
001F00
003C00
007800
006000
00C000
008000
000000
000000
000000
0780E0
7F83F0
078678
038C78
0398F8
0398F8
03B078
03B020
03A000
03E000
03E000
03E000
03C000
03C000
03C000
03C000
03C000
03C000
03C000
03C000
03C000
03E000
7FFF00
7FFF00
ENDCHAR

STARTCHAR aacute
ENCODING 225
SWIDTH 556 0
DWIDTH 28 0
BBX 27 38 1 -1
BITMAP
0000E000
0001F000
0001F000
0003E000
0007C000
00078000
000E0000
001C0000
00380000
00200000
00000000
00000000
00000000
007F0000
01FFC000
0783F000
0E00F000
0E00F800
1E007800
1F007800
1F007800
0F007800
06007800
0003F800
003FF800
00F87800
03C07800
0F007800
1E007800
1E007800
3C007800
3C00F800
3C00F800
3C01F800
3E037C00
1F0E3FC0
0FFC3F80
03F00F00
ENDCHAR

STARTCHAR acircumflex
ENCODING 226
SWIDTH 556 0
DWIDTH 28 0
BBX 27 38 1 -1
BITMAP
000E0000
000F0000
001F0000
003F8000
003BC000
0070C000
00E06000
00803000
01001800
00000000
00000000
00000000
00000000
007F0000
01FFC000
0783F000
0E00F000
0E00F800
1E007800
1F007800
1F007800
0F007800
06007800
0003F800
003FF800
00F87800
03C07800
0F007800
1E007800
1E007800
3C007800
3C00F800
3C00F800
3C01F800
3E037C00
1F0E3FC0
0FFC3F80
03F00F00
ENDCHAR

STARTCHAR abreve
ENCODING 227
SWIDTH 556 0
DWIDTH 28 0
BBX 27 37 1 -1
BITMAP
03001800
01001800
01803800
01E0F000
00FFF000
00FFE000
007FC000
000F0000
00000000
00000000
00000000
00000000
007F0000
01FFC000
0783F000
0E00F000
0E00F800
1E007800
1F007800
1F007800
0F007800
06007800
0003F800
003FF800
00F87800
03C07800
0F007800
1E007800
1E007800
3C007800
3C00F800
3C00F800
3C01F800
3E037C00
1F0E3FC0
0FFC3F80
03F00F00
ENDCHAR

STARTCHAR adieresis
ENCODING 228
SWIDTH 556 0
DWIDTH 28 0
BBX 28 35 0 -1
BITMAP
00E07000
01F0F800
01F0F800
01F0F800
00E07000
00000000
00000000
00000000
00000000
00000000
007F0000
01FFE000
0781F000
0E00F800
0E007800
1F007C00
1F807C00
1F807C00
0F007C00
06007C00
0003FC00
003FFC00
00F87C00
03C07C00
07807C00
0F007C00
1E007C00
3E007C00
3C007C00
3C00FC00
3E01FC00
3E03BC00
1F073FC0
0FFC1FC0
03F00F80
ENDCHAR

STARTCHAR lacute
ENCODING 229
SWIDTH 315 0
DWIDTH 16 0
BBX 16 49 0 0
BITMAP
0038
0078
00F8
01F0
01E0
03C0
0700
0600
0C00
0000
0000
0000
7FC0
7FC0
0FC0
03C0
03C0
03C0
03C0
03C0
03C0
03C0
03C0
03C0
03C0
03C0
03C0
03C0
03C0
03C0
03C0
03C0
03C0
03C0
03C0
03C0
03C0
03C0
03C0
03C0
03C0
03C0
03C0
03C0
03C0
03C0
07E0
7FFC
7FFC
ENDCHAR

STARTCHAR cacute
ENCODING 230
SWIDTH 444 0
DWIDTH 22 0
BBX 22 38 0 -1
BITMAP
000300
000780
000F80
001F00
001E00
003C00
007000
00E000
00C000
010000
000000
000000
000000
003E00
01FF80
03C1E0
0780E0
0F00F0
1E01F0
1E01F0
3C01F0
3C01E0
3C0040
3C0000
7C0000
7C0000
7C0000
7C0000
7C0000
3C0000
3C0000
3E0030
1E0030
1F0060
0F80E0
07E1C0
03FF80
00FE00
ENDCHAR

STARTCHAR ccedilla
ENCODING 231
SWIDTH 444 0
DWIDTH 22 0
BBX 22 34 0 -10
BITMAP
003E00
01FF80
03C1C0
0780E0
0F00F0
1E01F0
1E01F0
3C01F0
3C01E0
3C0040
3C0000
7C0000
7C0000
7C0000
7C0000
7C0000
3C0000
3C0000
3E0030
1E0030
1F0060
0F80E0
07C1C0
03FF80
007E00
003800
003E00
001F00
000F00
000F00
000F00
003E00
01FC00
01F000
ENDCHAR

STARTCHAR ccaron
ENCODING 232
SWIDTH 444 0
DWIDTH 22 0
BBX 22 38 0 -1
BITMAP
0C00C0
060180
030300
038600
01CE00
00FC00
00F800
007800
003000
000000
000000
000000
000000
003E00
01FF80
03C1E0
0780E0
0F00F0
1E01F0
1E01F0
3C01F0
3C01E0
3C0040
3C0000
7C0000
7C0000
7C0000
7C0000
7C0000
3C0000
3C0000
3E0030
1E0030
1F0060
0F80E0
07E1C0
03FF80
00FE00
ENDCHAR

STARTCHAR eacute
ENCODING 233
SWIDTH 500 0
DWIDTH 25 0
BBX 24 38 1 -1
BITMAP
0003C0
0007C0
0007C0
000F80
001F00
001C00
003800
007000
00C000
008000
000000
000000
000000
00FF00
03C3C0
0781E0
0F00F0
0E0070
1E0078
1C0078
3C0038
3C003C
3C007C
7C007C
7FFFFC
7FFFFC
7C0000
7C0000
7C0000
3C0000
3C0000
3E000C
1E001C
1F0018
0F8070
07E1E0
01FFC0
007F00
ENDCHAR

STARTCHAR eogonek
ENCODING 234
SWIDTH 500 0
DWIDTH 25 0
BBX 24 33 1 -9
BITMAP
003C00
01FF80
0383C0
0701E0
0E00F0
1E0070
1C0078
3C0078
3C0078
3C007C
7C007C
7FFFFC
7FFFFC
7C0000
7C0000
7C0000
3C0000
3C0008
3E000C
1E0018
1F0030
0F8070
07E1E0
03FF80
007E00
003000
003000
007000
007000
007800
003E00
001FF0
000FC0
ENDCHAR

STARTCHAR edieresis
ENCODING 235
SWIDTH 500 0
DWIDTH 25 0
BBX 24 35 1 -1
BITMAP
0381C0
07C3E0
07C3E0
07C3E0
0381C0
000000
000000
000000
000000
000000
00FF00
01E3C0
0381E0
0700F0
0F0070
0E0078
1E0078
1E0038
3C003C
3C007C
3C007C
3FFFFC
3FFFFC
3C0000
3C0000
3C0000
3E0000
3E0000
1E000C
1F001C
0F0018
078070
03E0E0
01FFC0
007F00
ENDCHAR

STARTCHAR ecaron
ENCODING 236
SWIDTH 500 0
DWIDTH 25 0
BBX 24 37 1 -1
BITMAP
060040
0301C0
01C380
00E700
00FE00
007E00
003C00
001800
000000
000000
000000
000000
00FF00
03C3C0
0781E0
0F00F0
0E0070
1E0078
1C0078
3C0038
3C003C
3C007C
7C007C
7FFFFC
7FFFFC
7C0000
7C0000
7C0000
3C0000
3C0000
3E000C
1E001C
1F0018
0F8070
07E1E0
01FFC0
007F00
ENDCHAR

STARTCHAR iacute
ENCODING 237
SWIDTH 315 0
DWIDTH 16 0
BBX 17 36 -1 0
BITMAP
001C00
003E00
003E00
007C00
00F800
00E000
01C000
038000
060000
040000
000000
000000
000000
07E000
3FE000
03E000
01E000
01E000
01E000
01E000
01E000
01E000
01E000
01E000
01E000
01E000
01E000
01E000
01E000
01E000
01E000
01E000
01E000
01E000
3FFE00
3FFE00
ENDCHAR

STARTCHAR icircumflex
ENCODING 238
SWIDTH 315 0
DWIDTH 16 0
BBX 17 36 -1 0
BITMAP
01C000
01E000
03E000
07F000
073800
0E1C00
180C00
100600
000000
000000
000000
000000
000000
07E000
3FE000
03E000
01E000
01E000
01E000
01E000
01E000
01E000
01E000
01E000
01E000
01E000
01E000
01E000
01E000
01E000
01E000
01E000
01E000
01E000
3FFE00
3FFE00
ENDCHAR

STARTCHAR dcaron
ENCODING 239
SWIDTH 651 0
DWIDTH 33 0
BBX 32 37 2 0
BITMAP
0007FC78
0007FCFC
0000FCFC
00003CFC
00003C0C
00003C0C
00003C08
00003C18
00003C30
00003CC0
00003C80
00003C00
00003C00
00FC3C00
03FF3C00
0783BC00
0F01BC00
1E00FC00
1E007C00
3C007C00
3C007C00
3C003C00
7C003C00
7C003C00
7C003C00
7C003C00
7C003C00
7C003C00
3C003C00
3C007C00
3E007C00
1E007C00
1E00FC00
0F01BC00
07C33E00
03FE3FC0
00F81FC0
ENDCHAR

STARTCHAR dcroat
ENCODING 240
SWIDTH 574 0
DWIDTH 29 0
BBX 28 37 2 0
BITMAP
0003FC00
0007FC00
0000FC00
00003C00
00003C00
00003C00
00003C00
003FFFE0
003FFFE0
00003C00
00003C00
00003C00
00003C00
00FC3C00
03FF3C00
0783BC00
0F01BC00
1E00FC00
1E007C00
3C007C00
3C007C00
3C003C00
7C003C00
7C003C00
7C003C00
7C003C00
7C003C00
7C003C00
3C003C00
3C007C00
3E007C00
1E007C00
1F00FC00
0F01BC00
07C33E00
03FE3FC0
01FC1FC0
ENDCHAR

STARTCHAR nacute
ENCODING 241
SWIDTH 611 0
DWIDTH 31 0
BBX 32 37 0 0
BITMAP
00001C00
00003C00
00007C00
0000F800
0001F000
0001E000
00038000
00070000
00060000
00080000
00000000
00000000
00000000
07807800
3FC3FE00
07CFFF00
03DC1F80
03D80780
03F007C0
03E003C0
03E003C0
03C003C0
03C003C0
03C003C0
03C003C0
03C003C0
03C003C0
03C003C0
03C003C0
03C003C0
03C003C0
03C003C0
03C003C0
03C003C0
07E007E0
3FFC3FFC
3FFC3FFC
ENDCHAR

STARTCHAR ncaron
ENCODING 242
SWIDTH 611 0
DWIDTH 31 0
BBX 32 36 0 0
BITMAP
00600600
00300C00
001C3800
000E7000
000FE000
0007E000
0003C000
00018000
00000000
00000000
00000000
00000000
07807800
3FC3FE00
07CFFF00
03DC1F80
03D80780
03F007C0
03E003C0
03E003C0
03C003C0
03C003C0
03C003C0
03C003C0
03C003C0
03C003C0
03C003C0
03C003C0
03C003C0
03C003C0
03C003C0
03C003C0
03C003C0
07E007E0
3FFC3FFC
3FFC3FFC
ENDCHAR

STARTCHAR oacute
ENCODING 243
SWIDTH 500 0
DWIDTH 25 0
BBX 24 38 1 -1
BITMAP
0001C0
0003C0
0007C0
000F80
000F00
001E00
003C00
003000
006000
00C000
000000
000000
000000
007E00
01FF80
0781E0
0F00F0
0E0070
1E0078
1E003C
3C003C
3C003C
3C003C
7C003E
7C003E
7C003E
7C003E
7C003E
3C003C
3C003C
3C003C
1E007C
1E0078
0F0070
0F00F0
07C1C0
01FF80
007E00
ENDCHAR

STARTCHAR ocircumflex
ENCODING 244
SWIDTH 500 0
DWIDTH 25 0
BBX 24 38 1 -1
BITMAP
001800
003C00
007E00
007E00
00E700
01C380
018180
0300C0
060060
000000
000000
000000
000000
007E00
01FF80
0781E0
0F00F0
0E0070
1E0078
1E003C
3C003C
3C003C
3C003C
7C003E
7C003E
7C003E
7C003E
7C003E
3C003C
3C003C
3C003C
1E007C
1E0078
0F0070
0F00F0
07C1C0
01FF80
007E00
ENDCHAR

STARTCHAR ohungarumlaut
ENCODING 245
SWIDTH 500 0
DWIDTH 25 0
BBX 26 38 1 -1
BITMAP
001C0600
003C0F00
007C1F00
00F83E00
00F03C00
01E07800
03C0E000
0301C000
06018000
0C020000
00000000
00000000
00000000
007E0000
01FF8000
0781E000
0F00F000
0E007000
1E007800
1E003C00
3C003C00
3C003C00
3C003C00
7C003E00
7C003E00
7C003E00
7C003E00
7C003E00
3C003C00
3C003C00
3C003C00
1E007C00
1E007800
0F007000
0F00F000
07C1C000
01FF8000
007E0000
ENDCHAR

STARTCHAR odieresis
ENCODING 246
SWIDTH 500 0
DWIDTH 25 0
BBX 24 35 1 -1
BITMAP
0381C0
07C3E0
07C3E0
07C3E0
0381C0
000000
000000
000000
000000
000000
007E00
01FF80
0781E0
0F00F0
0E0070
1E0078
1E003C
3C003C
3C003C
3C003C
7C003E
7C003E
7C003E
7C003E
7C003E
3C003C
3C003C
3C003C
1E007C
1E0078
0F0070
0F00F0
07C1C0
01FF80
007E00
ENDCHAR

STARTCHAR divide
ENCODING 247
SWIDTH 606 0
DWIDTH 30 0
BBX 30 25 0 4
BITMAP
00038000
0007C000
0007C000
0007C000
00038000
00000000
00000000
00000000
00000000
00000000
00000000
3FFFFFF8
3FFFFFF8
3FFFFFF8
00000000
00000000
00000000
00000000
00000000
00000000
00038000
0007C000
0007C000
0007C000
00038000
ENDCHAR

STARTCHAR rcaron
ENCODING 248
SWIDTH 444 0
DWIDTH 22 0
BBX 23 36 0 0
BITMAP
0600C0
030180
038300
01C700
00FE00
007C00
007800
003800
000000
000000
000000
000000
0780E0
7F83F0
078678
038C78
0398F8
0398F8
03B078
03B020
03A000
03E000
03E000
03E000
03C000
03C000
03C000
03C000
03C000
03C000
03C000
03C000
03C000
03E000
7FFF00
7FFF00
ENDCHAR

STARTCHAR uring
ENCODING 249
SWIDTH 611 0
DWIDTH 31 0
BBX 32 38 -1 0
BITMAP
0003C000
000FF000
000C3000
00181800
00181800
00181800
00181800
000C3000
000FF000
0003C000
00000000
00000000
00000000
00000000
07C007C0
3FC03FC0
07C007C0
03C003C0
03C003C0
03C003C0
03C003C0
03C003C0
03C003C0
03C003C0
03C003C0
03C003C0
03C003C0
03C003C0
03C003C0
03C003C0
03C007C0
03C007C0
03E00FC0
01E01BC0
01F833C0
00FFE3F0
007FC3FC
000E0000
ENDCHAR

STARTCHAR uacute
ENCODING 250
SWIDTH 611 0
DWIDTH 31 0
BBX 32 37 -1 0
BITMAP
00001C00
00003C00
00007C00
0000FC00
0000F000
0001E000
0003C000
00030000
00060000
000C0000
00000000
00000000
00000000
07C007C0
3FC03FC0
07C007C0
03C003C0
03C003C0
03C003C0
03C003C0
03C003C0
03C003C0
03C003C0
03C003C0
03C003C0
03C003C0
03C003C0
03C003C0
03C003C0
03C003C0
03C007C0
03E00FC0
01E01FC0
01F83BC0
00FFE3F0
007FC3FC
000E0000
ENDCHAR

STARTCHAR uhungarumlaut
ENCODING 251
SWIDTH 611 0
DWIDTH 31 0
BBX 32 37 -1 0
BITMAP
0001C070
0003C0F0
0007C1F0
000F83E0
000F03C0
001E0780
003C0F00
00700C00
00601800
00803000
00000000
00000000
00000000
07C007C0
3FC03FC0
07C007C0
03C003C0
03C003C0
03C003C0
03C003C0
03C003C0
03C003C0
03C003C0
03C003C0
03C003C0
03C003C0
03C003C0
03C003C0
03C003C0
03C003C0
03C007C0
03E00FC0
01E01FC0
01F83BC0
00FFE3F0
007FC3FC
000E0000
ENDCHAR

STARTCHAR udieresis
ENCODING 252
SWIDTH 611 0
DWIDTH 31 0
BBX 32 34 -1 0
BITMAP
00381C00
007C3E00
007C3E00
007C3E00
00381C00
00000000
00000000
00000000
00000000
00000000
07C007C0
3FC03FC0
07C007C0
03C003C0
03C003C0
03C003C0
03C003C0
03C003C0
03C003C0
03C003C0
03C003C0
03C003C0
03C003C0
03C003C0
03C003C0
03C003C0
03C003C0
03C007C0
03E00FC0
01E01FC0
01F83BC0
00FFE3F0
007FC3FC
000E0000
ENDCHAR

STARTCHAR yacute
ENCODING 253
SWIDTH 537 0
DWIDTH 27 0
BBX 28 46 0 -9
BITMAP
00002000
0000F000
0001F000
0001F000
0003E000
0007C000
00070000
000E0000
00180000
00300000
00000000
00000000
00000000
00000000
7FF07FE0
7FF07FE0
1F800F00
0F800700
07800600
07C00400
03C00C00
03E00C00
01E01800
01F01800
00F03000
00F83000
00782000
007C6000
003C4000
003EC000
001EC000
001F8000
000F8000
000F0000
00070000
00060000
00060000
00040000
000C0000
000C0000
38180000
3C300000
7C700000
7CE00000
3FC00000
1F000000
ENDCHAR

STARTCHAR tcommaaccent
ENCODING 254
SWIDTH 389 0
DWIDTH 19 0
BBX 20 43 0 -11
BITMAP
018000
018000
018000
018000
018000
038000
038000
078000
0F8000
7FFF00
7FFF00
078000
078000
078000
078000
078000
078000
078000
078000
078000
078000
078000
078000
078000
0780C0
0780C0
0780C0
0780C0
078180
07C180
03E700
01FE00
00FC00
000000
000000
00E000
01F000
01F000
00F000
003000
003000
006000
008000
ENDCHAR

STARTCHAR dotaccent
ENCODING 255
SWIDTH 333 0
DWIDTH 17 0
BBX 8 5 5 30
BITMAP
38
7C
7C
7C
38
ENDCHAR
ENDFONT
